<svg id="logo" xmlns="http://www.w3.org/2000/svg" viewBox="0 0 140 60"><defs><style>.cls-1{fill:#231f20;}</style></defs><path class="cls-1" d="M70,7.09l12.55,7.24v14.5L70,36.07,57.45,28.83V14.33Zm11.9,9L71.21,34.63,81.9,28.45Zm-23.8,0V28.45l10.69,6.18ZM69.68,34.86V8L58.1,14.71v.1ZM81.9,14.71,70.32,8V34.86l11.58-20Z"/><path class="cls-1" d="M46.4,44.87h-3a2.49,2.49,0,0,0-.25-.84,2,2,0,0,0-.49-.64A2.26,2.26,0,0,0,41.9,43a3,3,0,0,0-.93-.14,2.73,2.73,0,0,0-1.56.44,2.8,2.8,0,0,0-1,1.27,5.29,5.29,0,0,0-.35,2,5.21,5.21,0,0,0,.36,2.06,2.69,2.69,0,0,0,1,1.25,2.74,2.74,0,0,0,1.53.41,3.16,3.16,0,0,0,.9-.12,2.39,2.39,0,0,0,.73-.37,2.26,2.26,0,0,0,.51-.6,2.3,2.3,0,0,0,.28-.8l3,0A4.67,4.67,0,0,1,45.93,50a5.36,5.36,0,0,1-1.09,1.45,5.25,5.25,0,0,1-1.68,1,6.39,6.39,0,0,1-2.27.38,6,6,0,0,1-3-.74A5.24,5.24,0,0,1,35.77,50,7.21,7.21,0,0,1,35,46.57a7.11,7.11,0,0,1,.78-3.46A5.35,5.35,0,0,1,37.9,41a6.08,6.08,0,0,1,3-.74,6.62,6.62,0,0,1,2.08.31,5.19,5.19,0,0,1,1.69.91,4.65,4.65,0,0,1,1.18,1.45,5.37,5.37,0,0,1,.56,2"/><path class="cls-1" d="M56,46.57a5.31,5.31,0,0,0-.34-2,2.55,2.55,0,0,0-2.51-1.69,2.55,2.55,0,0,0-2.52,1.69,5.31,5.31,0,0,0-.34,2,5.38,5.38,0,0,0,.34,2,2.8,2.8,0,0,0,1,1.26,2.75,2.75,0,0,0,1.54.42,2.52,2.52,0,0,0,2.51-1.68,5.38,5.38,0,0,0,.34-2m3.07,0A6.93,6.93,0,0,1,58.29,50a5.28,5.28,0,0,1-2.13,2.16,6.11,6.11,0,0,1-3,.73,6,6,0,0,1-3-.74A5.34,5.34,0,0,1,48,50a7,7,0,0,1-.78-3.44A7.11,7.11,0,0,1,48,43.11,5.38,5.38,0,0,1,50.15,41a6.47,6.47,0,0,1,6,0,5.31,5.31,0,0,1,2.13,2.15,7,7,0,0,1,.79,3.46"/><polygon class="cls-1" points="67.82 40.39 67.82 47.51 67.72 47.51 62.83 40.39 60.24 40.39 60.24 52.75 63.25 52.75 63.25 45.61 63.33 45.61 68.27 52.75 70.82 52.75 70.82 40.39 67.82 40.39"/><polygon class="cls-1" points="80.36 40.39 77.58 49.44 77.47 49.44 74.69 40.39 71.32 40.39 75.52 52.75 79.53 52.75 83.73 40.39 80.36 40.39"/><polygon class="cls-1" points="84.05 40.39 84.05 52.75 92.74 52.75 92.74 50.32 87.06 50.32 87.06 47.78 92.3 47.78 92.3 45.35 87.06 45.35 87.06 42.81 92.74 42.81 92.74 40.39 84.05 40.39"/><polygon class="cls-1" points="101.49 40.39 99.18 44.29 99.08 44.29 96.79 40.39 93.38 40.39 97.16 46.57 93.28 52.75 96.73 52.75 99.08 48.8 99.18 48.8 101.53 52.75 105 52.75 101.1 46.57 104.88 40.39 101.49 40.39"/></svg>