<svg id="logo" xmlns="http://www.w3.org/2000/svg" viewBox="0 0 140 60"><defs><style>.cls-1{fill:#6aaae4;}</style></defs><path class="cls-1" d="M41.56,27.88H37.9a2.77,2.77,0,0,0-.3-1A2.51,2.51,0,0,0,37,26.1a2.65,2.65,0,0,0-.89-.49A3.29,3.29,0,0,0,35,25.44a3.21,3.21,0,0,0-1.87.53,3.35,3.35,0,0,0-1.21,1.53,6.3,6.3,0,0,0-.42,2.43,6.2,6.2,0,0,0,.43,2.48,3.3,3.3,0,0,0,1.21,1.51,3.25,3.25,0,0,0,1.84.5,3.73,3.73,0,0,0,1.09-.15,2.57,2.57,0,0,0,.87-.45,2.36,2.36,0,0,0,.62-.71,2.8,2.8,0,0,0,.34-1l3.66,0a5.67,5.67,0,0,1-.58,2,5.9,5.9,0,0,1-1.31,1.75,6,6,0,0,1-2,1.25,8,8,0,0,1-6.37-.42,6.34,6.34,0,0,1-2.53-2.6,8.61,8.61,0,0,1-.93-4.16,8.62,8.62,0,0,1,.94-4.17,6.45,6.45,0,0,1,2.56-2.59,7.33,7.33,0,0,1,3.6-.89,8.1,8.1,0,0,1,2.51.38,6.1,6.1,0,0,1,2,1.09,5.56,5.56,0,0,1,1.43,1.75,6.6,6.6,0,0,1,.68,2.38"/><path class="cls-1" d="M53.14,29.93a6.39,6.39,0,0,0-.41-2.46,3.25,3.25,0,0,0-6.07,0,6.59,6.59,0,0,0-.41,2.46,6.59,6.59,0,0,0,.41,2.46,3.24,3.24,0,0,0,6.07,0,6.39,6.39,0,0,0,.41-2.46m3.7,0a8.51,8.51,0,0,1-1,4.17,6.41,6.41,0,0,1-2.57,2.59,7.83,7.83,0,0,1-7.25,0,6.54,6.54,0,0,1-2.56-2.6,8.5,8.5,0,0,1-.94-4.16,8.51,8.51,0,0,1,.94-4.17,6.45,6.45,0,0,1,2.56-2.59,7.83,7.83,0,0,1,7.25,0,6.47,6.47,0,0,1,2.57,2.59,8.51,8.51,0,0,1,1,4.17"/><polygon class="cls-1" points="70.98 22.48 70.98 37.38 67.91 37.38 61.95 28.78 61.86 28.78 61.86 37.38 58.24 37.38 58.24 22.48 61.36 22.48 67.25 31.07 67.37 31.07 67.37 22.48 70.98 22.48"/><polygon class="cls-1" points="75.65 22.48 79.01 33.39 79.13 33.39 82.49 22.48 86.55 22.48 81.48 37.38 76.65 37.38 71.59 22.48 75.65 22.48"/><polygon class="cls-1" points="86.94 37.38 86.94 22.48 97.41 22.48 97.41 25.41 90.57 25.41 90.57 28.46 96.87 28.46 96.87 31.39 90.57 31.39 90.57 34.45 97.41 34.45 97.41 37.38 86.94 37.38"/><polygon class="cls-1" points="107.95 22.48 105.17 27.19 105.05 27.19 102.29 22.48 98.18 22.48 102.74 29.93 98.06 37.38 102.22 37.38 105.05 32.62 105.17 32.62 108 37.38 112.19 37.38 112.19 37.38 107.48 29.93 112.04 22.48 107.95 22.48"/></svg>