<svg id="logo" xmlns="http://www.w3.org/2000/svg" viewBox="0 0 140 60"><defs><style>.cls-1{fill:#0f206c;}.cls-2{fill:#416ba9;}.cls-3{fill:#6aaae4;}.cls-4{fill:#b8d8eb;}</style></defs><path class="cls-1" d="M57.73,27.88H54.08a3.21,3.21,0,0,0-.3-1,2.39,2.39,0,0,0-.6-.77,2.6,2.6,0,0,0-.88-.49,3.33,3.33,0,0,0-1.12-.17A3.22,3.22,0,0,0,49.3,26a3.33,3.33,0,0,0-1.2,1.53,6.11,6.11,0,0,0-.43,2.43,6.38,6.38,0,0,0,.43,2.48,3.1,3.1,0,0,0,3,2,3.8,3.8,0,0,0,1.1-.15,2.57,2.57,0,0,0,.87-.45,2.5,2.5,0,0,0,.62-.71,3.28,3.28,0,0,0,.34-1l3.65,0a5.44,5.44,0,0,1-.57,2,6.11,6.11,0,0,1-3.34,3,7.53,7.53,0,0,1-2.74.47,7.43,7.43,0,0,1-3.64-.89,6.41,6.41,0,0,1-2.53-2.6A8.61,8.61,0,0,1,44,29.93a8.51,8.51,0,0,1,1-4.17,6.49,6.49,0,0,1,2.55-2.59,7.33,7.33,0,0,1,3.6-.89,8.05,8.05,0,0,1,2.51.38,6.25,6.25,0,0,1,2,1.09,5.53,5.53,0,0,1,1.42,1.75,6.41,6.41,0,0,1,.68,2.38"/><path class="cls-1" d="M69.32,29.93a6.38,6.38,0,0,0-.42-2.46,3,3,0,0,0-3-2A3.31,3.31,0,0,0,64,26a3.27,3.27,0,0,0-1.18,1.52,6.38,6.38,0,0,0-.42,2.46,6.38,6.38,0,0,0,.42,2.46A3.27,3.27,0,0,0,64,33.91a3.31,3.31,0,0,0,1.85.51,3,3,0,0,0,3-2,6.38,6.38,0,0,0,.42-2.46m3.69,0a8.51,8.51,0,0,1-1,4.17,6.41,6.41,0,0,1-2.57,2.59,7.83,7.83,0,0,1-7.25,0,6.6,6.6,0,0,1-2.56-2.6,8.5,8.5,0,0,1-.94-4.16,8.51,8.51,0,0,1,.94-4.17,6.51,6.51,0,0,1,2.56-2.59,7.83,7.83,0,0,1,7.25,0,6.47,6.47,0,0,1,2.57,2.59,8.51,8.51,0,0,1,1,4.17"/><polygon class="cls-1" points="87.16 22.48 87.16 37.38 84.09 37.38 78.13 28.78 78.03 28.78 78.03 37.38 74.41 37.38 74.41 22.48 77.53 22.48 83.42 31.07 83.55 31.07 83.55 22.48 87.16 22.48"/><polygon class="cls-1" points="91.82 22.48 95.18 33.39 95.3 33.39 98.66 22.48 102.72 22.48 97.66 37.38 92.83 37.38 87.76 22.48 91.82 22.48"/><polygon class="cls-1" points="103.11 37.38 103.11 22.48 113.58 22.48 113.58 25.41 106.74 25.41 106.74 28.46 113.05 28.46 113.05 31.39 106.74 31.39 106.74 34.45 113.58 34.45 113.58 37.38 103.11 37.38"/><polygon class="cls-1" points="124.13 22.48 121.34 27.19 121.22 27.19 118.46 22.48 114.35 22.48 118.91 29.93 114.23 37.38 118.39 37.38 121.22 32.62 121.34 32.62 124.17 37.38 128.36 37.38 128.36 37.38 123.66 29.93 128.21 22.48 124.13 22.48"/><polygon class="cls-1" points="22.58 42.5 33.51 36.25 33.51 23.75 22.58 42.5"/><polygon class="cls-2" points="11.64 36.25 22.58 42.5 11.64 23.75 11.64 36.25"/><polygon class="cls-3" points="22.58 17.5 22.58 42.5 33.51 23.75 33.51 23.75 22.58 17.5"/><polygon class="cls-4" points="22.58 17.5 11.64 23.75 22.58 42.5 22.58 17.5"/></svg>