<svg id="logo" xmlns="http://www.w3.org/2000/svg" viewBox="0 0 140 60"><defs><style>.cls-1{fill:#fff;}</style></defs><path class="cls-1" d="M70,13l12.55,7.24v14.5L70,42,57.45,34.76V20.26Zm11.9,9L71.21,40.56,81.9,34.38ZM58.1,22V34.38l10.69,6.18ZM69.68,40.8V14L58.1,20.64v.1ZM81.9,20.64,70.32,14V40.8L81.9,20.74Z"/><path class="cls-1" d="M46.4,50.8h-3a2.49,2.49,0,0,0-.25-.84,2.06,2.06,0,0,0-.49-.64,2.26,2.26,0,0,0-.73-.41,3,3,0,0,0-.93-.14,2.73,2.73,0,0,0-1.56.44,2.8,2.8,0,0,0-1,1.27,5.29,5.29,0,0,0-.35,2,5.21,5.21,0,0,0,.36,2.06,2.69,2.69,0,0,0,1,1.25,2.74,2.74,0,0,0,1.53.42,3.15,3.15,0,0,0,.9-.13,2.39,2.39,0,0,0,.73-.37,2.11,2.11,0,0,0,.51-.6,2.23,2.23,0,0,0,.28-.8l3,0A4.61,4.61,0,0,1,45.93,56a5.36,5.36,0,0,1-1.09,1.45,5.25,5.25,0,0,1-1.68,1,6.39,6.39,0,0,1-2.27.38,6,6,0,0,1-3-.74A5.24,5.24,0,0,1,35.77,56,7.21,7.21,0,0,1,35,52.5,7.11,7.11,0,0,1,35.78,49a5.35,5.35,0,0,1,2.12-2.15,6.08,6.08,0,0,1,3-.74,6.92,6.92,0,0,1,2.08.31,5.19,5.19,0,0,1,1.69.91,4.65,4.65,0,0,1,1.18,1.45,5.37,5.37,0,0,1,.56,2"/><path class="cls-1" d="M56,52.5a5.31,5.31,0,0,0-.34-2,2.55,2.55,0,0,0-2.51-1.69,2.55,2.55,0,0,0-2.52,1.69,5.31,5.31,0,0,0-.34,2,5.38,5.38,0,0,0,.34,2,2.8,2.8,0,0,0,1,1.26,2.76,2.76,0,0,0,1.54.43,2.55,2.55,0,0,0,2.51-1.69,5.38,5.38,0,0,0,.34-2m3.07,0A6.93,6.93,0,0,1,58.29,56a5.28,5.28,0,0,1-2.13,2.16,6.11,6.11,0,0,1-3,.73,6,6,0,0,1-3-.74A5.38,5.38,0,0,1,48,56,8,8,0,0,1,48,49a5.38,5.38,0,0,1,2.13-2.15,6.47,6.47,0,0,1,6,0A5.31,5.31,0,0,1,58.29,49a7,7,0,0,1,.79,3.46"/><polygon class="cls-1" points="67.82 46.32 67.82 53.44 67.72 53.44 62.83 46.32 60.24 46.32 60.24 58.68 63.25 58.68 63.25 51.54 63.33 51.54 68.27 58.68 70.82 58.68 70.82 46.32 67.82 46.32"/><polygon class="cls-1" points="80.36 46.32 77.58 55.37 77.47 55.37 74.69 46.32 71.32 46.32 75.52 58.68 79.53 58.68 83.73 46.32 80.36 46.32"/><polygon class="cls-1" points="84.05 46.32 84.05 58.68 92.74 58.68 92.74 56.25 87.06 56.25 87.06 53.71 92.3 53.71 92.3 51.28 87.06 51.28 87.06 48.74 92.74 48.74 92.74 46.32 84.05 46.32"/><polygon class="cls-1" points="101.49 46.32 99.18 50.22 99.08 50.22 96.79 46.32 93.38 46.32 97.16 52.5 93.28 58.68 96.73 58.68 99.08 54.73 99.18 54.73 101.53 58.68 105 58.68 101.1 52.5 104.88 46.32 101.49 46.32"/><path class="cls-1" d="M70,13l12.55,7.24v14.5L70,42,57.45,34.76V20.26Zm11.9,9L71.21,40.56,81.9,34.38ZM58.1,22V34.38l10.69,6.18ZM69.68,40.8V14L58.1,20.64v.1ZM81.9,20.64,70.32,14V40.8L81.9,20.74Z"/><path class="cls-1" d="M59.89,47.11h-1.3a1.08,1.08,0,0,0-.11-.36.9.9,0,0,0-.21-.27.85.85,0,0,0-.31-.17,1.29,1.29,0,0,0-.4-.06,1.22,1.22,0,0,0-.67.18,1.2,1.2,0,0,0-.43.55,2.24,2.24,0,0,0-.15.86,2.33,2.33,0,0,0,.15.89,1.28,1.28,0,0,0,.43.53,1.21,1.21,0,0,0,.66.18,1.6,1.6,0,0,0,.39,0,1.14,1.14,0,0,0,.31-.16,1,1,0,0,0,.34-.6h1.3a2,2,0,0,1-.21.69,2.27,2.27,0,0,1-.46.62,2.2,2.2,0,0,1-.72.45,2.72,2.72,0,0,1-1,.16,2.62,2.62,0,0,1-1.29-.31,2.31,2.31,0,0,1-.9-.93A3.05,3.05,0,0,1,55,47.84a3,3,0,0,1,.34-1.48,2.28,2.28,0,0,1,.9-.92,2.61,2.61,0,0,1,1.28-.32,2.88,2.88,0,0,1,.9.14,2.26,2.26,0,0,1,.72.38,2,2,0,0,1,.51.63,2.28,2.28,0,0,1,.24.84"/><path class="cls-1" d="M64,47.84a2.26,2.26,0,0,0-.15-.87,1.08,1.08,0,0,0-1.08-.72,1.21,1.21,0,0,0-.66.18,1.16,1.16,0,0,0-.42.54,2.8,2.8,0,0,0,0,1.75,1.27,1.27,0,0,0,.42.54,1.21,1.21,0,0,0,.66.18,1.16,1.16,0,0,0,.66-.18,1.27,1.27,0,0,0,.42-.54,2.28,2.28,0,0,0,.15-.88m1.31,0A2.92,2.92,0,0,1,65,49.32a2.27,2.27,0,0,1-.91.93,2.62,2.62,0,0,1-1.29.31,2.52,2.52,0,0,1-1.29-.32,2.37,2.37,0,0,1-.91-.92,3.48,3.48,0,0,1,0-3,2.37,2.37,0,0,1,.91-.92,2.76,2.76,0,0,1,2.58,0,2.3,2.3,0,0,1,.91.92,3,3,0,0,1,.34,1.48"/><polygon class="cls-1" points="69.07 45.2 69.07 48.25 69.02 48.25 66.93 45.2 65.82 45.2 65.82 50.49 67.11 50.49 67.11 47.43 67.14 47.43 69.26 50.49 70.35 50.49 70.35 45.2 69.07 45.2"/><polygon class="cls-1" points="74.44 45.2 73.25 49.07 73.2 49.07 72.01 45.2 70.56 45.2 72.37 50.49 74.08 50.49 75.88 45.2 74.44 45.2"/><polygon class="cls-1" points="76.02 45.2 76.02 50.49 79.75 50.49 79.75 49.45 77.31 49.45 77.31 48.36 79.56 48.36 79.56 47.32 77.31 47.32 77.31 46.23 79.75 46.23 79.75 45.2 76.02 45.2"/><polygon class="cls-1" points="83.5 45.2 82.5 46.87 82.46 46.87 81.48 45.2 80.02 45.2 81.64 47.84 79.98 50.49 81.45 50.49 82.46 48.8 82.5 48.8 83.51 50.49 85 50.49 83.33 47.84 84.95 45.2 83.5 45.2"/></svg>