<svg id="logo" xmlns="http://www.w3.org/2000/svg" viewBox="0 0 140 60"><defs><style>.cls-1{fill:#0f206c;}</style></defs><path class="cls-1" d="M70,6.8l12.55,7.25V28.54L70,35.79,57.45,28.54V14.05Zm11.9,9L71.21,34.34,81.9,28.17Zm-23.8,0V28.17l10.69,6.17ZM69.68,34.58V7.74L58.1,14.42v.1ZM81.9,14.42,70.33,7.74V34.58L81.9,14.52Z"/><path class="cls-1" d="M46.4,44.58h-3a2.49,2.49,0,0,0-.25-.84,2.06,2.06,0,0,0-.49-.64,2.26,2.26,0,0,0-.73-.41,3,3,0,0,0-.93-.14,2.75,2.75,0,0,0-1.56.44,2.82,2.82,0,0,0-1,1.28,6,6,0,0,0,0,4.07,2.69,2.69,0,0,0,1,1.25A2.74,2.74,0,0,0,41,50a2.84,2.84,0,0,0,.9-.13,2.19,2.19,0,0,0,.73-.37,2,2,0,0,0,.51-.6,2.23,2.23,0,0,0,.28-.8l3,0a4.61,4.61,0,0,1-.47,1.62,5.36,5.36,0,0,1-1.09,1.45,5.08,5.08,0,0,1-1.68,1,6.64,6.64,0,0,1-5.29-.35,5.27,5.27,0,0,1-2.1-2.16,8.09,8.09,0,0,1,0-6.91,5.35,5.35,0,0,1,2.12-2.15,6.08,6.08,0,0,1,3-.74,6.92,6.92,0,0,1,2.08.31,5.19,5.19,0,0,1,1.69.91,4.69,4.69,0,0,1,1.18,1.46,5.27,5.27,0,0,1,.56,2"/><path class="cls-1" d="M56,46.28a5.37,5.37,0,0,0-.35-2,2.67,2.67,0,0,0-1-1.26,2.7,2.7,0,0,0-4,1.26,6.29,6.29,0,0,0,0,4.08,2.75,2.75,0,0,0,1,1.26,2.94,2.94,0,0,0,3.06,0,2.67,2.67,0,0,0,1-1.26,5.37,5.37,0,0,0,.35-2m3.06,0a7,7,0,0,1-.79,3.46,5.31,5.31,0,0,1-2.13,2.15,6.12,6.12,0,0,1-3,.74,6,6,0,0,1-3-.75A5.35,5.35,0,0,1,48,49.73a8,8,0,0,1,0-6.91,5.35,5.35,0,0,1,2.12-2.15,6.47,6.47,0,0,1,6,0,5.31,5.31,0,0,1,2.13,2.15,7,7,0,0,1,.79,3.46"/><polygon class="cls-1" points="67.82 40.1 67.82 47.22 67.72 47.22 62.83 40.1 60.24 40.1 60.24 52.46 63.25 52.46 63.25 45.33 63.33 45.33 68.27 52.46 70.82 52.46 70.82 40.1 67.82 40.1"/><polygon class="cls-1" points="80.36 40.1 77.58 49.15 77.47 49.15 74.69 40.1 71.32 40.1 75.52 52.46 79.53 52.46 83.73 40.1 80.36 40.1"/><polygon class="cls-1" points="84.05 40.1 84.05 52.46 92.74 52.46 92.74 50.03 87.06 50.03 87.06 47.49 92.3 47.49 92.3 45.06 87.06 45.06 87.06 42.53 92.74 42.53 92.74 40.1 84.05 40.1"/><polygon class="cls-1" points="101.49 40.1 99.18 44.01 99.08 44.01 96.79 40.1 93.38 40.1 97.16 46.28 93.28 52.46 96.73 52.46 99.08 48.51 99.18 48.51 101.53 52.46 105 52.46 101.1 46.28 104.88 40.1 101.49 40.1"/></svg>