<svg id="logo" xmlns="http://www.w3.org/2000/svg" viewBox="0 0 140 60"><defs><style>.cls-1{fill:#0f206c;}.cls-2{fill:#416ba9;}.cls-3{fill:#6aaae4;}.cls-4{fill:#b8d8eb;}</style></defs><path class="cls-1" d="M59.89,46.83h-1.3a1.08,1.08,0,0,0-.11-.36.83.83,0,0,0-.21-.28A1,1,0,0,0,58,46a1.29,1.29,0,0,0-.4-.06,1.15,1.15,0,0,0-.67.19,1.23,1.23,0,0,0-.43.54,2.26,2.26,0,0,0-.15.87,2.1,2.1,0,0,0,.16.88,1.13,1.13,0,0,0,.42.53,1.21,1.21,0,0,0,.66.18,1.23,1.23,0,0,0,.39,0,1,1,0,0,0,.31-.16.88.88,0,0,0,.22-.25,1,1,0,0,0,.12-.35h1.3a1.73,1.73,0,0,1-.21.69,2.12,2.12,0,0,1-.46.63,2.36,2.36,0,0,1-.72.44,2.72,2.72,0,0,1-1,.17A2.62,2.62,0,0,1,56.23,50a2.28,2.28,0,0,1-.9-.92A3.08,3.08,0,0,1,55,47.56a2.92,2.92,0,0,1,.34-1.48,2.24,2.24,0,0,1,.9-.93,2.61,2.61,0,0,1,1.28-.31,2.88,2.88,0,0,1,.9.13,2.28,2.28,0,0,1,.72.39,2,2,0,0,1,.51.62,2.28,2.28,0,0,1,.24.85"/><path class="cls-1" d="M64,47.56a2.28,2.28,0,0,0-.15-.88,1.27,1.27,0,0,0-.42-.54,1.28,1.28,0,0,0-1.31,0,1.22,1.22,0,0,0-.43.54,2.8,2.8,0,0,0,0,1.75,1.12,1.12,0,0,0,.43.54,1.15,1.15,0,0,0,1.73-.54,2.26,2.26,0,0,0,.15-.87m1.31,0A3,3,0,0,1,65,49a2.3,2.3,0,0,1-.91.92,2.76,2.76,0,0,1-2.58,0,2.33,2.33,0,0,1-.91-.93,3.46,3.46,0,0,1,0-3,2.33,2.33,0,0,1,.91-.93,2.84,2.84,0,0,1,2.58,0,2.27,2.27,0,0,1,.91.93,2.92,2.92,0,0,1,.34,1.48"/><polygon class="cls-1" points="69.07 44.91 69.07 47.96 69.02 47.96 66.93 44.91 65.82 44.91 65.82 50.2 67.11 50.2 67.11 47.15 67.14 47.15 69.26 50.2 70.35 50.2 70.35 44.91 69.07 44.91"/><polygon class="cls-1" points="74.44 44.91 73.25 48.79 73.2 48.79 72.01 44.91 70.57 44.91 72.37 50.2 74.08 50.2 75.89 44.91 74.44 44.91"/><polygon class="cls-1" points="76.02 44.91 76.02 50.2 79.75 50.2 79.75 49.16 77.31 49.16 77.31 48.08 79.56 48.08 79.56 47.03 77.31 47.03 77.31 45.95 79.75 45.95 79.75 44.91 76.02 44.91"/><polygon class="cls-1" points="83.5 44.91 82.5 46.58 82.46 46.58 81.48 44.91 80.02 44.91 81.64 47.56 79.98 50.2 81.46 50.2 82.46 48.51 82.5 48.51 83.51 50.2 85 50.2 83.33 47.56 84.95 44.91 83.5 44.91"/><polygon class="cls-1" points="70 41.72 82.68 34.47 82.68 19.98 70 41.72"/><polygon class="cls-2" points="57.32 34.47 70 41.72 57.32 19.98 57.32 34.47"/><polygon class="cls-3" points="70 12.73 70 41.72 82.68 19.98 82.68 19.98 70 12.73"/><polygon class="cls-4" points="70 12.73 57.32 19.98 70 41.72 70 12.73"/><path class="cls-1" d="M59.89,46.83h-1.3a1.08,1.08,0,0,0-.11-.36.83.83,0,0,0-.21-.28A1,1,0,0,0,58,46a1.29,1.29,0,0,0-.4-.06,1.15,1.15,0,0,0-.67.19,1.23,1.23,0,0,0-.43.54,2.26,2.26,0,0,0-.15.87,2.1,2.1,0,0,0,.16.88,1.13,1.13,0,0,0,.42.53,1.21,1.21,0,0,0,.66.18,1.23,1.23,0,0,0,.39,0,1,1,0,0,0,.31-.16.88.88,0,0,0,.22-.25,1,1,0,0,0,.12-.35h1.3a1.73,1.73,0,0,1-.21.69,2.12,2.12,0,0,1-.46.63,2.36,2.36,0,0,1-.72.44,2.72,2.72,0,0,1-1,.17A2.62,2.62,0,0,1,56.23,50a2.28,2.28,0,0,1-.9-.92A3.08,3.08,0,0,1,55,47.56a2.92,2.92,0,0,1,.34-1.48,2.24,2.24,0,0,1,.9-.93,2.61,2.61,0,0,1,1.28-.31,2.88,2.88,0,0,1,.9.13,2.28,2.28,0,0,1,.72.39,2,2,0,0,1,.51.62,2.28,2.28,0,0,1,.24.85"/><path class="cls-1" d="M64,47.56a2.28,2.28,0,0,0-.15-.88,1.27,1.27,0,0,0-.42-.54,1.28,1.28,0,0,0-1.31,0,1.22,1.22,0,0,0-.43.54,2.8,2.8,0,0,0,0,1.75,1.12,1.12,0,0,0,.43.54,1.15,1.15,0,0,0,1.73-.54,2.26,2.26,0,0,0,.15-.87m1.31,0A3,3,0,0,1,65,49a2.3,2.3,0,0,1-.91.92,2.76,2.76,0,0,1-2.58,0,2.33,2.33,0,0,1-.91-.93,3.46,3.46,0,0,1,0-3,2.33,2.33,0,0,1,.91-.93,2.84,2.84,0,0,1,2.58,0,2.27,2.27,0,0,1,.91.93,2.92,2.92,0,0,1,.34,1.48"/><polygon class="cls-1" points="69.07 44.91 69.07 47.96 69.02 47.96 66.93 44.91 65.82 44.91 65.82 50.2 67.11 50.2 67.11 47.15 67.14 47.15 69.26 50.2 70.35 50.2 70.35 44.91 69.07 44.91"/><polygon class="cls-1" points="74.44 44.91 73.25 48.79 73.2 48.79 72.01 44.91 70.57 44.91 72.37 50.2 74.08 50.2 75.89 44.91 74.44 44.91"/><polygon class="cls-1" points="76.02 44.91 76.02 50.2 79.75 50.2 79.75 49.16 77.31 49.16 77.31 48.08 79.56 48.08 79.56 47.03 77.31 47.03 77.31 45.95 79.75 45.95 79.75 44.91 76.02 44.91"/><polygon class="cls-1" points="83.5 44.91 82.5 46.58 82.46 46.58 81.48 44.91 80.02 44.91 81.64 47.56 79.98 50.2 81.46 50.2 82.46 48.51 82.5 48.51 83.51 50.2 85 50.2 83.33 47.56 84.95 44.91 83.5 44.91"/><polygon class="cls-1" points="70 41.72 82.68 34.47 82.68 19.98 70 41.72"/><polygon class="cls-2" points="57.32 34.47 70 41.72 57.32 19.98 57.32 34.47"/><polygon class="cls-3" points="70 12.73 70 41.72 82.68 19.98 82.68 19.98 70 12.73"/><polygon class="cls-4" points="70 12.73 57.32 19.98 70 41.72 70 12.73"/></svg>