<svg id="logo" xmlns="http://www.w3.org/2000/svg" viewBox="0 0 140 60"><defs><style>.cls-1{fill:#6aaae4;}</style></defs><path class="cls-1" d="M57.68,27.88H54a3.21,3.21,0,0,0-.3-1,2.39,2.39,0,0,0-.6-.77,2.6,2.6,0,0,0-.88-.49,3.33,3.33,0,0,0-1.12-.17,3.24,3.24,0,0,0-1.88.53A3.33,3.33,0,0,0,48,27.5a6.3,6.3,0,0,0-.42,2.43,6.2,6.2,0,0,0,.43,2.48,3.22,3.22,0,0,0,1.2,1.51,3.31,3.31,0,0,0,1.85.5,3.73,3.73,0,0,0,1.09-.15,2.57,2.57,0,0,0,.87-.45,2.36,2.36,0,0,0,.62-.71,3,3,0,0,0,.34-1l3.66,0a5.67,5.67,0,0,1-.58,2,6.11,6.11,0,0,1-3.34,3,7.49,7.49,0,0,1-2.74.47,7.39,7.39,0,0,1-3.63-.89,6.34,6.34,0,0,1-2.53-2.6,8.61,8.61,0,0,1-.93-4.16,8.51,8.51,0,0,1,.94-4.17,6.49,6.49,0,0,1,2.55-2.59,7.33,7.33,0,0,1,3.6-.89,8.12,8.12,0,0,1,2.52.38,6.1,6.1,0,0,1,2,1.09A5.56,5.56,0,0,1,57,25.5a6.6,6.6,0,0,1,.68,2.38"/><path class="cls-1" d="M69.26,29.93a6.59,6.59,0,0,0-.41-2.46,3.25,3.25,0,0,0-6.07,0,6.59,6.59,0,0,0-.41,2.46,6.59,6.59,0,0,0,.41,2.46,3.25,3.25,0,0,0,6.07,0,6.59,6.59,0,0,0,.41-2.46m3.69,0a8.4,8.4,0,0,1-1,4.17,6.39,6.39,0,0,1-2.56,2.59,7.83,7.83,0,0,1-7.25,0,6.54,6.54,0,0,1-2.56-2.6,8.5,8.5,0,0,1-1-4.16,8.51,8.51,0,0,1,1-4.17,6.45,6.45,0,0,1,2.56-2.59,7.83,7.83,0,0,1,7.25,0A6.45,6.45,0,0,1,72,25.76a8.4,8.4,0,0,1,1,4.17"/><polygon class="cls-1" points="87.1 22.48 87.1 37.38 84.03 37.38 78.07 28.78 77.98 28.78 77.98 37.38 74.36 37.38 74.36 22.48 77.47 22.48 83.36 31.07 83.49 31.07 83.49 22.48 87.1 22.48"/><polygon class="cls-1" points="91.77 22.48 95.12 33.39 95.25 33.39 98.61 22.48 102.67 22.48 97.6 37.38 92.77 37.38 87.7 22.48 91.77 22.48"/><polygon class="cls-1" points="103.06 37.38 103.06 22.48 113.53 22.48 113.53 25.41 106.69 25.41 106.69 28.46 112.99 28.46 112.99 31.39 106.69 31.39 106.69 34.45 113.53 34.45 113.53 37.38 103.06 37.38"/><polygon class="cls-1" points="124.07 22.48 121.28 27.19 121.17 27.19 118.41 22.48 114.29 22.48 118.86 29.93 114.17 37.38 118.33 37.38 121.17 32.62 121.28 32.62 124.12 37.38 128.31 37.38 128.31 37.38 123.6 29.93 128.16 22.48 124.07 22.48"/><path class="cls-1" d="M22.52,17.5l10.83,6.25v12.5L22.52,42.5,11.7,36.25V23.75Zm10.27,7.78-9.23,16,9.23-5.32Zm-20.54,0V35.93l9.23,5.32Zm10,16.18V18.31l-10,5.76v.09ZM32.79,24.07l-10-5.76V41.46l10-17.3Z"/></svg>