<?xml version="1.0" encoding="UTF-8"?><svg id="Layer_1" xmlns="http://www.w3.org/2000/svg" xmlns:xlink="http://www.w3.org/1999/xlink" viewBox="0 0 144 144"><defs><style>.cls-1{clip-path:url(#clippath);}.cls-2{clip-path:url(#clippath-1);}.cls-3{clip-path:url(#clippath-4);}.cls-4{clip-path:url(#clippath-3);}.cls-5{clip-path:url(#clippath-2);}.cls-6{clip-path:url(#clippath-7);}.cls-7{clip-path:url(#clippath-8);}.cls-8{clip-path:url(#clippath-6);}.cls-9{clip-path:url(#clippath-5);}.cls-10{clip-path:url(#clippath-9);}.cls-11{clip-path:url(#clippath-20);}.cls-12{clip-path:url(#clippath-21);}.cls-13{clip-path:url(#clippath-24);}.cls-14{clip-path:url(#clippath-23);}.cls-15{clip-path:url(#clippath-22);}.cls-16{clip-path:url(#clippath-25);}.cls-17{clip-path:url(#clippath-27);}.cls-18{clip-path:url(#clippath-26);}.cls-19{clip-path:url(#clippath-14);}.cls-20{clip-path:url(#clippath-13);}.cls-21{clip-path:url(#clippath-12);}.cls-22{clip-path:url(#clippath-10);}.cls-23{clip-path:url(#clippath-15);}.cls-24{clip-path:url(#clippath-17);}.cls-25{clip-path:url(#clippath-16);}.cls-26{clip-path:url(#clippath-19);}.cls-27{clip-path:url(#clippath-11);}.cls-28{clip-path:url(#clippath-18);}.cls-29{fill:none;stroke:#0f206c;stroke-miterlimit:10;stroke-width:.6px;}.cls-30{isolation:isolate;}</style><clipPath id="clippath"><path class="cls-29" d="m123.8,39.1c4.23,2.3,6.82,7.01,6.81,12.44l-23.12-12.58c.01-5.42-2.58-10.14-6.81-12.44,6.94,3.77,16.19,8.81,23.12,12.58Z"/></clipPath><clipPath id="clippath-1"><path class="cls-29" d="m100.67,26.52l23.12,12.58c-.16-.09-.33-.18-.5-.26l-23.12-12.58c.17.08.34.17.5.26Z"/></clipPath><clipPath id="clippath-2"><polygon class="cls-29" points="130.6 51.54 130.53 91.82 107.4 79.24 107.48 38.96 130.6 51.54"/></clipPath><clipPath id="clippath-3"><path class="cls-29" d="m130.53,91.82c-.01,5.66-2.82,11.29-7.36,14.76l-23.12-12.58c4.54-3.47,7.35-9.1,7.36-14.76l23.12,12.58Z"/></clipPath><clipPath id="clippath-4"><polygon class="cls-29" points="123.17 106.58 90.81 131.28 67.68 118.7 100.04 94 123.17 106.58"/></clipPath><clipPath id="clippath-5"><path class="cls-29" d="m90.81,131.28c-2.26,1.72-4.8,2.78-7.34,3.14s-5.08.01-7.33-1.07l-23.12-12.58c2.25,1.09,4.79,1.43,7.33,1.07s5.08-1.42,7.34-3.14l23.12,12.58Z"/></clipPath><clipPath id="clippath-6"><polygon class="cls-29" points="76.14 133.34 43.85 117.73 20.73 105.15 53.01 120.76 76.14 133.34"/></clipPath><clipPath id="clippath-7"><path class="cls-29" d="m43.34,117.47l-23.12-12.58c-4.23-2.3-6.83-6.99-6.82-12.43l23.12,12.58c-.01,5.44,2.59,10.13,6.82,12.43Z"/></clipPath><clipPath id="clippath-8"><path class="cls-29" d="m20.22,104.89c.17.09.34.18.51.26l23.12,12.58c-.17-.08-.34-.17-.51-.26-6.94-3.77-16.19-8.81-23.12-12.58Z"/></clipPath><clipPath id="clippath-9"><polygon class="cls-29" points="36.52 105.04 13.4 92.46 13.47 52.17 36.6 64.75 36.52 105.04"/></clipPath><clipPath id="clippath-10"><path class="cls-29" d="m36.6,64.75l-23.12-12.58c.01-5.64,2.84-11.3,7.38-14.76l23.12,12.58c-4.54,3.47-7.37,9.13-7.38,14.76Z"/></clipPath><clipPath id="clippath-11"><polygon class="cls-29" points="43.98 49.99 20.85 37.41 53.21 12.74 76.34 25.32 43.98 49.99"/></clipPath><clipPath id="clippath-12"><path class="cls-29" d="m76.34,25.32l-23.12-12.58c2.27-1.73,4.8-2.8,7.34-3.15,2.53-.36,5.07,0,7.33,1.09l23.12,12.58c-2.26-1.1-4.8-1.45-7.33-1.09s-5.07,1.42-7.34,3.15Z"/></clipPath><clipPath id="clippath-13"><polygon class="cls-29" points="91.01 23.26 67.88 10.68 100.17 26.26 123.29 38.84 91.01 23.26"/></clipPath><clipPath id="clippath-14"><polygon class="cls-29" points="130.43 91.84 107.3 79.26 107.38 38.97 130.5 51.55 130.43 91.84"/></clipPath><clipPath id="clippath-15"><path class="cls-29" d="m123.73,39.22c-.16-.09-.33-.17-.49-.25l-23.12-12.58c.17.08.33.17.49.25,6.94,3.77,16.19,8.81,23.12,12.58Z"/></clipPath><clipPath id="clippath-16"><path class="cls-29" d="m100.6,26.64l23.12,12.58c4.2,2.28,6.79,6.96,6.78,12.34l-23.12-12.58c0-5.38-2.58-10.06-6.77-12.34Z"/></clipPath><clipPath id="clippath-17"><polygon class="cls-29" points="123.23 38.96 90.95 23.37 67.82 10.79 100.11 26.38 123.23 38.96"/></clipPath><clipPath id="clippath-18"><path class="cls-29" d="m90.95,23.37c-2.23-1.09-4.75-1.44-7.27-1.08-2.52.35-5.04,1.41-7.3,3.13l-23.12-12.58c2.26-1.72,4.78-2.78,7.3-3.13s5.04,0,7.27,1.08l23.12,12.58Z"/></clipPath><clipPath id="clippath-19"><polygon class="cls-29" points="76.38 25.42 44.02 50.09 20.89 37.52 53.25 12.84 76.38 25.42"/></clipPath><clipPath id="clippath-20"><path class="cls-29" d="m44.02,50.09c-4.5,3.44-7.29,9.05-7.3,14.64l-23.12-12.58c.01-5.59,2.8-11.2,7.3-14.64l23.12,12.58Z"/></clipPath><clipPath id="clippath-21"><polygon class="cls-29" points="36.72 64.73 36.64 105.02 13.52 92.44 13.59 52.16 36.72 64.73"/></clipPath><clipPath id="clippath-22"><path class="cls-29" d="m43.36,117.34l-23.12-12.58c.17.09.35.18.53.27l23.12,12.58c-.18-.09-.36-.18-.53-.27Z"/></clipPath><clipPath id="clippath-23"><path class="cls-29" d="m20.24,104.76c-4.17-2.27-6.73-6.94-6.72-12.32l23.12,12.58c-.01,5.39,2.55,10.05,6.72,12.32-6.94-3.77-16.19-8.81-23.12-12.58Z"/></clipPath><clipPath id="clippath-24"><polygon class="cls-29" points="43.89 117.61 20.77 105.03 53.05 120.64 76.18 133.22 43.89 117.61"/></clipPath><clipPath id="clippath-25"><path class="cls-29" d="m76.18,133.22l-23.12-12.58c2.25,1.08,4.77,1.42,7.29,1.06,2.52-.35,5.03-1.4,7.28-3.11l23.12,12.58c-2.25,1.71-4.76,2.76-7.28,3.11s-5.03.01-7.29-1.06Z"/></clipPath><clipPath id="clippath-26"><polygon class="cls-29" points="90.75 131.18 67.62 118.6 99.98 93.9 123.11 106.48 90.75 131.18"/></clipPath><clipPath id="clippath-27"><path class="cls-29" d="m123.11,106.48l-23.12-12.58c4.5-3.42,7.31-9.03,7.32-14.64l23.12,12.58c-.01,5.61-2.82,11.23-7.32,14.64Z"/></clipPath></defs><g class="cls-30"><g class="cls-30"><g class="cls-1"><g class="cls-30"><path class="cls-29" d="m123.29,38.84l-23.12-12.58c4.53,2.19,7.32,7.06,7.31,12.7l23.12,12.58c.01-5.64-2.78-10.5-7.31-12.7Z"/><line class="cls-29" x1="127.2" y1="41.86" x2="104.08" y2="29.28"/><line class="cls-29" x1="129.72" y1="46.23" x2="106.59" y2="33.65"/></g><path class="cls-29" d="m123.8,39.1c4.23,2.3,6.82,7.01,6.81,12.44l-23.12-12.58c.01-5.42-2.58-10.14-6.81-12.44,6.94,3.77,16.19,8.81,23.12,12.58Z"/></g><path class="cls-29" d="m123.8,39.1c4.23,2.3,6.82,7.01,6.81,12.44l-23.12-12.58c.01-5.42-2.58-10.14-6.81-12.44,6.94,3.77,16.19,8.81,23.12,12.58Z"/></g><g class="cls-30"><g class="cls-2"><g class="cls-30"><path class="cls-29" d="m123.29,38.84l-23.12-12.58c4.53,2.19,7.32,7.06,7.31,12.7l23.12,12.58c.01-5.64-2.78-10.5-7.31-12.7Z"/></g><path class="cls-29" d="m100.67,26.52l23.12,12.58c-.16-.09-.33-.18-.5-.26l-23.12-12.58c.17.08.34.17.5.26Z"/></g><path class="cls-29" d="m100.67,26.52l23.12,12.58c-.16-.09-.33-.18-.5-.26l-23.12-12.58c.17.08.34.17.5.26Z"/></g><g class="cls-30"><g class="cls-5"><polygon class="cls-29" points="130.6 51.54 130.53 91.82 107.4 79.24 107.48 38.96 130.6 51.54"/></g><polygon class="cls-29" points="130.6 51.54 130.53 91.82 107.4 79.24 107.48 38.96 130.6 51.54"/></g><g class="cls-30"><g class="cls-4"><g class="cls-30"><path class="cls-29" d="m130.53,91.82l-23.12-12.58c-.01,5.66-2.82,11.29-7.36,14.76l23.12,12.58c4.54-3.47,7.35-9.1,7.36-14.76Z"/><line class="cls-29" x1="129.62" y1="97.39" x2="106.5" y2="84.81"/><line class="cls-29" x1="127.09" y1="102.47" x2="103.97" y2="89.89"/></g><path class="cls-29" d="m130.53,91.82c-.01,5.66-2.82,11.29-7.36,14.76l-23.12-12.58c4.54-3.47,7.35-9.1,7.36-14.76l23.12,12.58Z"/></g><path class="cls-29" d="m130.53,91.82c-.01,5.66-2.82,11.29-7.36,14.76l-23.12-12.58c4.54-3.47,7.35-9.1,7.36-14.76l23.12,12.58Z"/></g><g class="cls-30"><g class="cls-3"><polygon class="cls-29" points="123.17 106.58 90.81 131.28 67.68 118.7 100.04 94 123.17 106.58"/></g><polygon class="cls-29" points="123.17 106.58 90.81 131.28 67.68 118.7 100.04 94 123.17 106.58"/></g><g class="cls-30"><g class="cls-9"><g class="cls-30"><g><path class="cls-29" d="m90.81,131.28l-23.12-12.58c-2.26,1.72-4.8,2.78-7.34,3.14l23.12,12.58c2.54-.36,5.08-1.42,7.34-3.14Z"/><line class="cls-29" x1="88.46" y1="132.78" x2="65.34" y2="120.2"/><line class="cls-29" x1="86" y1="133.82" x2="62.87" y2="121.24"/></g><g><path class="cls-29" d="m83.47,134.41l-23.12-12.58c-2.54.36-5.08.01-7.33-1.07l23.12,12.58c2.25,1.09,4.79,1.43,7.33,1.07Z"/><line class="cls-29" x1="80.94" y1="134.53" x2="57.82" y2="121.95"/><line class="cls-29" x1="78.47" y1="134.18" x2="55.35" y2="121.6"/></g></g><path class="cls-29" d="m90.81,131.28c-2.26,1.72-4.8,2.78-7.34,3.14s-5.08.01-7.33-1.07l-23.12-12.58c2.25,1.09,4.79,1.43,7.33,1.07s5.08-1.42,7.34-3.14l23.12,12.58Z"/></g><path class="cls-29" d="m90.81,131.28c-2.26,1.72-4.8,2.78-7.34,3.14s-5.08.01-7.33-1.07l-23.12-12.58c2.25,1.09,4.79,1.43,7.33,1.07s5.08-1.42,7.34-3.14l23.12,12.58Z"/></g><g class="cls-30"><g class="cls-8"><polygon class="cls-29" points="76.14 133.34 43.85 117.73 20.73 105.15 53.01 120.76 76.14 133.34"/></g><polygon class="cls-29" points="76.14 133.34 43.85 117.73 20.73 105.15 53.01 120.76 76.14 133.34"/></g><g class="cls-30"><g class="cls-6"><g class="cls-30"><path class="cls-29" d="m43.85,117.73l-23.12-12.58c-4.53-2.19-7.34-7.04-7.33-12.69l23.12,12.58c-.01,5.66,2.8,10.5,7.33,12.69Z"/><line class="cls-29" x1="39.94" y1="114.72" x2="16.81" y2="102.14"/><line class="cls-29" x1="37.41" y1="110.35" x2="14.29" y2="97.77"/></g><path class="cls-29" d="m43.34,117.47l-23.12-12.58c-4.23-2.3-6.83-6.99-6.82-12.43l23.12,12.58c-.01,5.44,2.59,10.13,6.82,12.43Z"/></g><path class="cls-29" d="m43.34,117.47l-23.12-12.58c-4.23-2.3-6.83-6.99-6.82-12.43l23.12,12.58c-.01,5.44,2.59,10.13,6.82,12.43Z"/></g><g class="cls-30"><g class="cls-7"><g class="cls-30"><path class="cls-29" d="m43.85,117.73l-23.12-12.58c-4.53-2.19-7.34-7.04-7.33-12.69l23.12,12.58c-.01,5.66,2.8,10.5,7.33,12.69Z"/></g><path class="cls-29" d="m20.22,104.89c.17.09.34.18.51.26l23.12,12.58c-.17-.08-.34-.17-.51-.26-6.94-3.77-16.19-8.81-23.12-12.58Z"/></g><path class="cls-29" d="m20.22,104.89c.17.09.34.18.51.26l23.12,12.58c-.17-.08-.34-.17-.51-.26-6.94-3.77-16.19-8.81-23.12-12.58Z"/></g><g class="cls-30"><g class="cls-10"><polygon class="cls-29" points="36.52 105.04 13.4 92.46 13.47 52.17 36.6 64.75 36.52 105.04"/></g><polygon class="cls-29" points="36.52 105.04 13.4 92.46 13.47 52.17 36.6 64.75 36.52 105.04"/></g><g class="cls-30"><g class="cls-22"><g class="cls-30"><path class="cls-29" d="m36.6,64.75l-23.12-12.58c.01-5.64,2.84-11.3,7.38-14.76l23.12,12.58c-4.54,3.47-7.37,9.13-7.38,14.76Z"/><line class="cls-29" x1="37.51" y1="59.19" x2="14.38" y2="46.61"/><line class="cls-29" x1="40.05" y1="54.11" x2="16.93" y2="41.53"/></g><path class="cls-29" d="m36.6,64.75l-23.12-12.58c.01-5.64,2.84-11.3,7.38-14.76l23.12,12.58c-4.54,3.47-7.37,9.13-7.38,14.76Z"/></g><path class="cls-29" d="m36.6,64.75l-23.12-12.58c.01-5.64,2.84-11.3,7.38-14.76l23.12,12.58c-4.54,3.47-7.37,9.13-7.38,14.76Z"/></g><g class="cls-30"><g class="cls-27"><polygon class="cls-29" points="43.98 49.99 20.85 37.41 53.21 12.74 76.34 25.32 43.98 49.99"/></g><polygon class="cls-29" points="43.98 49.99 20.85 37.41 53.21 12.74 76.34 25.32 43.98 49.99"/></g><g class="cls-30"><g class="cls-21"><g class="cls-30"><g><path class="cls-29" d="m76.34,25.32l-23.12-12.58c2.27-1.73,4.8-2.8,7.34-3.15l23.12,12.58c-2.53.36-5.07,1.42-7.34,3.15Z"/><line class="cls-29" x1="78.69" y1="23.81" x2="55.56" y2="11.23"/><line class="cls-29" x1="81.15" y1="22.76" x2="58.03" y2="10.18"/></g><g><path class="cls-29" d="m83.68,22.17l-23.12-12.58c2.53-.36,5.07,0,7.33,1.09l23.12,12.58c-2.26-1.1-4.8-1.45-7.33-1.09Z"/><line class="cls-29" x1="86.2" y1="22.05" x2="63.08" y2="9.47"/><line class="cls-29" x1="88.66" y1="22.41" x2="65.54" y2="9.83"/></g></g><path class="cls-29" d="m76.34,25.32l-23.12-12.58c2.27-1.73,4.8-2.8,7.34-3.15,2.53-.36,5.07,0,7.33,1.09l23.12,12.58c-2.26-1.1-4.8-1.45-7.33-1.09s-5.07,1.42-7.34,3.15Z"/></g><path class="cls-29" d="m76.34,25.32l-23.12-12.58c2.27-1.73,4.8-2.8,7.34-3.15,2.53-.36,5.07,0,7.33,1.09l23.12,12.58c-2.26-1.1-4.8-1.45-7.33-1.09s-5.07,1.42-7.34,3.15Z"/></g><g class="cls-30"><g class="cls-20"><polygon class="cls-29" points="91.01 23.26 67.88 10.68 100.17 26.26 123.29 38.84 91.01 23.26"/></g><polygon class="cls-29" points="91.01 23.26 67.88 10.68 100.17 26.26 123.29 38.84 91.01 23.26"/></g><g class="cls-30"><g class="cls-19"><polygon class="cls-29" points="130.43 91.84 107.3 79.26 107.38 38.97 130.5 51.55 130.43 91.84"/></g><polygon class="cls-29" points="130.43 91.84 107.3 79.26 107.38 38.97 130.5 51.55 130.43 91.84"/></g><g class="cls-30"><g class="cls-23"><g class="cls-30"><path class="cls-29" d="m130.5,51.55l-23.12-12.58c.01-5.59-2.78-10.42-7.27-12.59l23.12,12.58c4.48,2.18,7.28,7,7.27,12.59Z"/></g><path class="cls-29" d="m123.73,39.22c-.16-.09-.33-.17-.49-.25l-23.12-12.58c.17.08.33.17.49.25,6.94,3.77,16.19,8.81,23.12,12.58Z"/></g><path class="cls-29" d="m123.73,39.22c-.16-.09-.33-.17-.49-.25l-23.12-12.58c.17.08.33.17.49.25,6.94,3.77,16.19,8.81,23.12,12.58Z"/></g><g class="cls-30"><g class="cls-25"><g class="cls-30"><path class="cls-29" d="m130.5,51.55l-23.12-12.58c.01-5.59-2.78-10.42-7.27-12.59l23.12,12.58c4.48,2.18,7.28,7,7.27,12.59Z"/><line class="cls-29" x1="129.62" y1="46.29" x2="106.49" y2="33.71"/><line class="cls-29" x1="127.11" y1="41.95" x2="103.99" y2="29.37"/></g><path class="cls-29" d="m100.6,26.64l23.12,12.58c4.2,2.28,6.79,6.96,6.78,12.34l-23.12-12.58c0-5.38-2.58-10.06-6.77-12.34Z"/></g><path class="cls-29" d="m100.6,26.64l23.12,12.58c4.2,2.28,6.79,6.96,6.78,12.34l-23.12-12.58c0-5.38-2.58-10.06-6.77-12.34Z"/></g><g class="cls-30"><g class="cls-24"><polygon class="cls-29" points="123.23 38.96 90.95 23.37 67.82 10.79 100.11 26.38 123.23 38.96"/></g><polygon class="cls-29" points="123.23 38.96 90.95 23.37 67.82 10.79 100.11 26.38 123.23 38.96"/></g><g class="cls-30"><g class="cls-28"><g class="cls-30"><g><path class="cls-29" d="m90.95,23.37l-23.12-12.58c-2.23-1.09-4.75-1.44-7.27-1.08l23.12,12.58c2.52-.35,5.04,0,7.27,1.08Z"/><line class="cls-29" x1="88.63" y1="22.53" x2="65.5" y2="9.95"/><line class="cls-29" x1="86.18" y1="22.17" x2="63.06" y2="9.59"/></g><g><path class="cls-29" d="m83.68,22.29l-23.12-12.58c-2.52.35-5.04,1.41-7.3,3.13l23.12,12.58c2.26-1.72,4.78-2.78,7.3-3.13Z"/><line class="cls-29" x1="81.17" y1="22.88" x2="58.04" y2="10.3"/><line class="cls-29" x1="78.71" y1="23.92" x2="55.59" y2="11.34"/></g></g><path class="cls-29" d="m90.95,23.37c-2.23-1.09-4.75-1.44-7.27-1.08-2.52.35-5.04,1.41-7.3,3.13l-23.12-12.58c2.26-1.72,4.78-2.78,7.3-3.13s5.04,0,7.27,1.08l23.12,12.58Z"/></g><path class="cls-29" d="m90.95,23.37c-2.23-1.09-4.75-1.44-7.27-1.08-2.52.35-5.04,1.41-7.3,3.13l-23.12-12.58c2.26-1.72,4.78-2.78,7.3-3.13s5.04,0,7.27,1.08l23.12,12.58Z"/></g><g class="cls-30"><g class="cls-26"><polygon class="cls-29" points="76.38 25.42 44.02 50.09 20.89 37.52 53.25 12.84 76.38 25.42"/></g><polygon class="cls-29" points="76.38 25.42 44.02 50.09 20.89 37.52 53.25 12.84 76.38 25.42"/></g><g class="cls-30"><g class="cls-11"><g class="cls-30"><path class="cls-29" d="m44.02,50.09l-23.12-12.58c-4.5,3.44-7.29,9.05-7.3,14.64l23.12,12.58c.01-5.59,2.8-11.2,7.3-14.64Z"/><line class="cls-29" x1="40.13" y1="54.18" x2="17" y2="41.6"/><line class="cls-29" x1="37.62" y1="59.22" x2="14.49" y2="46.64"/></g><path class="cls-29" d="m44.02,50.09c-4.5,3.44-7.29,9.05-7.3,14.64l-23.12-12.58c.01-5.59,2.8-11.2,7.3-14.64l23.12,12.58Z"/></g><path class="cls-29" d="m44.02,50.09c-4.5,3.44-7.29,9.05-7.3,14.64l-23.12-12.58c.01-5.59,2.8-11.2,7.3-14.64l23.12,12.58Z"/></g><g class="cls-30"><g class="cls-12"><polygon class="cls-29" points="36.72 64.73 36.64 105.02 13.52 92.44 13.59 52.16 36.72 64.73"/></g><polygon class="cls-29" points="36.72 64.73 36.64 105.02 13.52 92.44 13.59 52.16 36.72 64.73"/></g><g class="cls-30"><g class="cls-15"><g class="cls-30"><path class="cls-29" d="m36.64,105.02l-23.12-12.58c-.01,5.61,2.76,10.44,7.25,12.6l23.12,12.58c-4.48-2.15-7.26-6.98-7.25-12.6Z"/></g><path class="cls-29" d="m43.36,117.34l-23.12-12.58c.17.09.35.18.53.27l23.12,12.58c-.18-.09-.36-.18-.53-.27Z"/></g><path class="cls-29" d="m43.36,117.34l-23.12-12.58c.17.09.35.18.53.27l23.12,12.58c-.18-.09-.36-.18-.53-.27Z"/></g><g class="cls-30"><g class="cls-14"><g class="cls-30"><path class="cls-29" d="m36.64,105.02l-23.12-12.58c-.01,5.61,2.76,10.44,7.25,12.6l23.12,12.58c-4.48-2.15-7.26-6.98-7.25-12.6Z"/><line class="cls-29" x1="37.52" y1="110.3" x2="14.4" y2="97.72"/><line class="cls-29" x1="40.02" y1="114.64" x2="16.89" y2="102.06"/></g><path class="cls-29" d="m20.24,104.76c-4.17-2.27-6.73-6.94-6.72-12.32l23.12,12.58c-.01,5.39,2.55,10.05,6.72,12.32-6.94-3.77-16.19-8.81-23.12-12.58Z"/></g><path class="cls-29" d="m20.24,104.76c-4.17-2.27-6.73-6.94-6.72-12.32l23.12,12.58c-.01,5.39,2.55,10.05,6.72,12.32-6.94-3.77-16.19-8.81-23.12-12.58Z"/></g><g class="cls-30"><g class="cls-13"><polygon class="cls-29" points="43.89 117.61 20.77 105.03 53.05 120.64 76.18 133.22 43.89 117.61"/></g><polygon class="cls-29" points="43.89 117.61 20.77 105.03 53.05 120.64 76.18 133.22 43.89 117.61"/></g><g class="cls-30"><g class="cls-16"><g class="cls-30"><g><path class="cls-29" d="m76.18,133.22l-23.12-12.58c2.25,1.08,4.77,1.42,7.29,1.06l23.12,12.58c-2.52.35-5.03.01-7.29-1.06Z"/><line class="cls-29" x1="78.51" y1="134.06" x2="55.39" y2="121.48"/><line class="cls-29" x1="80.96" y1="134.41" x2="57.83" y2="121.83"/></g><g><path class="cls-29" d="m83.47,134.29l-23.12-12.58c2.52-.35,5.03-1.4,7.28-3.11l23.12,12.58c-2.25,1.71-4.76,2.76-7.28,3.11Z"/><line class="cls-29" x1="85.97" y1="133.7" x2="62.85" y2="121.12"/><line class="cls-29" x1="88.42" y1="132.66" x2="65.29" y2="120.08"/></g></g><path class="cls-29" d="m76.18,133.22l-23.12-12.58c2.25,1.08,4.77,1.42,7.29,1.06,2.52-.35,5.03-1.4,7.28-3.11l23.12,12.58c-2.25,1.71-4.76,2.76-7.28,3.11s-5.03.01-7.29-1.06Z"/></g><path class="cls-29" d="m76.18,133.22l-23.12-12.58c2.25,1.08,4.77,1.42,7.29,1.06,2.52-.35,5.03-1.4,7.28-3.11l23.12,12.58c-2.25,1.71-4.76,2.76-7.28,3.11s-5.03.01-7.29-1.06Z"/></g><g class="cls-30"><g class="cls-18"><polygon class="cls-29" points="90.75 131.18 67.62 118.6 99.98 93.9 123.11 106.48 90.75 131.18"/></g><polygon class="cls-29" points="90.75 131.18 67.62 118.6 99.98 93.9 123.11 106.48 90.75 131.18"/></g><g class="cls-30"><g class="cls-17"><g class="cls-30"><path class="cls-29" d="m123.11,106.48l-23.12-12.58c4.5-3.42,7.31-9.03,7.32-14.64l23.12,12.58c-.01,5.61-2.82,11.23-7.32,14.64Z"/><line class="cls-29" x1="127" y1="102.41" x2="103.88" y2="89.83"/><line class="cls-29" x1="129.52" y1="97.37" x2="106.4" y2="84.79"/></g><path class="cls-29" d="m123.11,106.48l-23.12-12.58c4.5-3.42,7.31-9.03,7.32-14.64l23.12,12.58c-.01,5.61-2.82,11.23-7.32,14.64Z"/></g><path class="cls-29" d="m123.11,106.48l-23.12-12.58c4.5-3.42,7.31-9.03,7.32-14.64l23.12,12.58c-.01,5.61-2.82,11.23-7.32,14.64Z"/></g></g></svg>