<?xml version="1.0" encoding="UTF-8"?><svg id="Layer_1" xmlns="http://www.w3.org/2000/svg" xmlns:xlink="http://www.w3.org/1999/xlink" viewBox="0 0 144 144"><defs><style>.cls-1{clip-path:url(#clippath);}.cls-2{fill:none;stroke:#0f206c;stroke-miterlimit:10;stroke-width:.8px;}.cls-3{clip-path:url(#clippath-1);}.cls-4{clip-path:url(#clippath-4);}.cls-5{clip-path:url(#clippath-3);}.cls-6{clip-path:url(#clippath-2);}.cls-7{clip-path:url(#clippath-7);}.cls-8{clip-path:url(#clippath-8);}.cls-9{clip-path:url(#clippath-6);}.cls-10{clip-path:url(#clippath-5);}.cls-11{clip-path:url(#clippath-9);}.cls-12{clip-path:url(#clippath-14);}.cls-13{clip-path:url(#clippath-13);}.cls-14{clip-path:url(#clippath-12);}.cls-15{clip-path:url(#clippath-10);}.cls-16{clip-path:url(#clippath-15);}.cls-17{clip-path:url(#clippath-17);}.cls-18{clip-path:url(#clippath-16);}.cls-19{clip-path:url(#clippath-11);}.cls-20{isolation:isolate;}</style><clipPath id="clippath"><path class="cls-2" d="m82.75,135.22c-6.07-.59-12.15-1.19-18.22-1.78-17.04-1.67-23.13-13.62-13.47-28.14,10.46-15.67,35.24-28.34,55.45-28.36l-1.89,28.85c-10.5,0-23.46,6.62-28.89,14.78-5.03,7.55-1.84,13.79,7.02,14.66Z"/></clipPath><clipPath id="clippath-1"><path class="cls-2" d="m64.52,133.43c1.33.13,2.73.2,4.19.2,20.22-.01,45-12.68,55.46-28.34l-10.35,15.27c-5.42,8.14-18.38,14.76-28.9,14.76-.76,0-1.49-.03-2.19-.1-6.07-.59-12.15-1.19-18.22-1.78Z"/></clipPath><clipPath id="clippath-2"><path class="cls-2" d="m104.62,105.78l1.89-28.85c20.2.01,28.1,12.69,17.67,28.36l-10.35,15.27c5.43-8.15,1.3-14.78-9.21-14.78Z"/></clipPath><clipPath id="clippath-3"><path class="cls-2" d="m127.54,86.56c2.34,4.99,1.41,11.55-3.37,18.73-10.46,15.66-35.24,28.33-55.46,28.34-10.93,0-18.26-3.73-21.03-9.62L16.46,57.44c2.77,5.9,10.09,9.61,21.03,9.62,20.22-.01,45-12.68,55.46-28.34,4.78-7.18,5.71-13.74,3.37-18.73,9.37,19.97,21.86,46.6,31.23,66.57Z"/></clipPath><clipPath id="clippath-4"><path class="cls-2" d="m96.31,19.99l31.23,66.57c-2.77-5.9-10.1-9.62-21.04-9.62L75.27,10.37c10.94,0,18.27,3.73,21.04,9.62Z"/></clipPath><clipPath id="clippath-5"><path class="cls-2" d="m47.69,124.01L16.46,57.44c-2.34-4.99-1.41-11.54,3.36-18.72,10.46-15.67,35.24-28.34,55.45-28.36l31.23,66.57c-20.21.02-44.99,12.69-55.45,28.36-4.78,7.18-5.7,13.73-3.36,18.72Z"/></clipPath><clipPath id="clippath-6"><path class="cls-2" d="m79.47,10.57c17.05,1.67,23.14,13.62,13.47,28.16-10.46,15.66-35.24,28.33-55.46,28.34-20.19-.02-28.08-12.68-17.67-28.34l10.35-15.27c-5.42,8.14-1.3,14.76,9.2,14.76s23.47-6.62,28.9-14.76c5.04-7.56,1.85-13.8-7.02-14.67,6.07.59,12.15,1.19,18.22,1.78Z"/></clipPath><clipPath id="clippath-7"><path class="cls-2" d="m61.25,8.78c6.07.59,12.15,1.19,18.22,1.78-1.33-.13-2.73-.2-4.2-.2l-16.21-1.69c.76,0,1.5.04,2.19.1Z"/></clipPath><clipPath id="clippath-8"><path class="cls-2" d="m19.82,38.72l10.35-15.27c5.43-8.15,18.39-14.78,28.89-14.78l16.21,1.69c-20.21.02-44.99,12.69-55.45,28.36Z"/></clipPath><clipPath id="clippath-9"><path class="cls-2" d="m106.68,106.04c-6.08-.59-12.15-1.19-18.23-1.78-.05,0-.1,0-.16,0-.66-.01-1.63.47-2,1.01h0c-.42.63-.85,1.25-1.27,1.88.38-.56.88-1.3,1.25-1.85-.37.53-.06,1.04.64,1.03l-1.89,28.85c-10.39,0-14.47-6.55-9.1-14.6,5.38-8.07,18.19-14.62,28.58-14.62.76,0,1.48.03,2.17.1Z"/></clipPath><clipPath id="clippath-10"><path class="cls-2" d="m88.46,104.26c6.08.59,12.15,1.19,18.23,1.78,8.78.86,11.93,7.04,6.94,14.51-5.37,8.05-18.18,14.6-28.59,14.6l1.89-28.85c.7.01,1.69-.49,2.02-1.03.35-.51.11-.97-.49-1.03Z"/></clipPath><clipPath id="clippath-11"><path class="cls-2" d="m85.03,107.14c.42-.63.85-1.25,1.27-1.88,0,0-.01.02-.02.03,0,0-1.25,1.85-1.25,1.85Z"/></clipPath><clipPath id="clippath-12"><path class="cls-2" d="m89.06,104.61c-.1-.22-.37-.37-.76-.36-.68-.01-1.66.49-2.01,1.04-.17.24-.2.48-.11.67l-31.23-66.57c-.09-.19-.06-.42.11-.67.35-.55,1.34-1.05,2.01-1.04.39,0,.66.14.76.36,9.37,19.97,21.86,46.6,31.23,66.57Z"/></clipPath><clipPath id="clippath-13"><path class="cls-2" d="m57.83,38.05l31.23,66.57c.09.19.06.43-.12.68-.33.53-1.32,1.04-2.02,1.03l-31.23-66.57c.7.01,1.69-.49,2.02-1.03.17-.25.2-.49.12-.68Z"/></clipPath><clipPath id="clippath-14"><path class="cls-2" d="m86.17,105.95l-31.23-66.57c.1.22.37.37.75.36l31.23,66.57c-.38,0-.65-.14-.75-.36Z"/></clipPath><clipPath id="clippath-15"><path class="cls-2" d="m57.69,38.75s.01-.02.02-.03c.28-.41.64-.95.92-1.35-.28.42-.66.97-.94,1.38Z"/></clipPath><clipPath id="clippath-16"><path class="cls-2" d="m58.63,37.37l-.92,1.35c.38-.55.07-1.05-.65-1.04-.68-.01-1.66.49-2.01,1.04-.35.49-.1.96.48,1.02-6.07-.59-12.15-1.19-18.22-1.78-8.77-.86-11.92-7.03-6.94-14.5,5.38-8.07,18.19-14.62,28.58-14.62,10.4,0,14.49,6.55,9.11,14.62-5.37,8.05-18.18,14.6-28.59,14.6l16.21,1.69c.69.01,1.65-.47,2-.99.28-.42.66-.97.94-1.38Z"/></clipPath><clipPath id="clippath-17"><path class="cls-2" d="m55.53,39.74c-6.07-.59-12.15-1.19-18.22-1.78.69.07,1.41.1,2.16.1l16.21,1.69c-.05,0-.11,0-.15,0Z"/></clipPath></defs><g class="cls-20"><g class="cls-20"><g class="cls-1"><g class="cls-20"><g><path class="cls-2" d="m84.93,135.32l-16.21-1.69c-20.19-.02-28.08-12.68-17.67-28.34l24.68,15.27c-5.42,8.14-1.3,14.76,9.2,14.76Z"/><line class="cls-2" x1="76.67" y1="133.3" x2="52.85" y2="129.76"/><line class="cls-2" x1="73.37" y1="128" x2="46.52" y2="119.59"/></g><g><path class="cls-2" d="m75.73,120.56l-24.68-15.27c10.46-15.67,35.24-28.34,55.45-28.36l-1.89,28.85c-10.5,0-23.46,6.62-28.89,14.78Z"/><line class="cls-2" x1="83.3" y1="113.1" x2="65.58" y2="90.98"/><line class="cls-2" x1="93.67" y1="107.8" x2="85.47" y2="80.81"/></g></g><path class="cls-2" d="m82.75,135.22c-6.07-.59-12.15-1.19-18.22-1.78-17.04-1.67-23.13-13.62-13.47-28.14,10.46-15.67,35.24-28.34,55.45-28.36l-1.89,28.85c-10.5,0-23.46,6.62-28.89,14.78-5.03,7.55-1.84,13.79,7.02,14.66Z"/></g><path class="cls-2" d="m82.75,135.22c-6.07-.59-12.15-1.19-18.22-1.78-17.04-1.67-23.13-13.62-13.47-28.14,10.46-15.67,35.24-28.34,55.45-28.36l-1.89,28.85c-10.5,0-23.46,6.62-28.89,14.78-5.03,7.55-1.84,13.79,7.02,14.66Z"/></g><g class="cls-20"><g class="cls-3"><g class="cls-20"><g><path class="cls-2" d="m113.83,120.56l10.35-15.27c-10.46,15.66-35.24,28.33-55.46,28.34l16.21,1.69c10.51,0,23.47-6.62,28.9-14.76Z"/><line class="cls-2" x1="106.26" y1="128" x2="109.64" y2="119.6"/><line class="cls-2" x1="95.89" y1="133.3" x2="89.76" y2="129.76"/></g><path class="cls-2" d="m84.93,135.32l-16.21-1.69c-20.19-.02-28.08-12.68-17.67-28.34l24.68,15.27c-5.42,8.14-1.3,14.76,9.2,14.76Z"/></g><path class="cls-2" d="m64.52,133.43c1.33.13,2.73.2,4.19.2,20.22-.01,45-12.68,55.46-28.34l-10.35,15.27c-5.42,8.14-18.38,14.76-28.9,14.76-.76,0-1.49-.03-2.19-.1-6.07-.59-12.15-1.19-18.22-1.78Z"/></g><path class="cls-2" d="m64.52,133.43c1.33.13,2.73.2,4.19.2,20.22-.01,45-12.68,55.46-28.34l-10.35,15.27c-5.42,8.14-18.38,14.76-28.9,14.76-.76,0-1.49-.03-2.19-.1-6.07-.59-12.15-1.19-18.22-1.78Z"/></g><g class="cls-20"><g class="cls-6"><g class="cls-20"><path class="cls-2" d="m104.62,105.78l1.89-28.85c20.2.01,28.1,12.69,17.67,28.36l-10.35,15.27c5.43-8.15,1.3-14.78-9.21-14.78Z"/><line class="cls-2" x1="112.89" y1="107.8" x2="122.38" y2="80.81"/><line class="cls-2" x1="116.19" y1="113.1" x2="128.72" y2="90.98"/></g><path class="cls-2" d="m104.62,105.78l1.89-28.85c20.2.01,28.1,12.69,17.67,28.36l-10.35,15.27c5.43-8.15,1.3-14.78-9.21-14.78Z"/></g><path class="cls-2" d="m104.62,105.78l1.89-28.85c20.2.01,28.1,12.69,17.67,28.36l-10.35,15.27c5.43-8.15,1.3-14.78-9.21-14.78Z"/></g><g class="cls-20"><g class="cls-5"><g class="cls-20"><g><path class="cls-2" d="m106.5,76.93L75.27,10.37c20.2.01,28.1,12.69,17.67,28.36l31.23,66.57c10.43-15.67,2.53-28.34-17.67-28.36Z"/><line class="cls-2" x1="128.72" y1="90.98" x2="97.48" y2="24.41"/></g><g><path class="cls-2" d="m124.18,105.29l-31.23-66.57c-10.46,15.66-35.24,28.33-55.46,28.34l31.23,66.57c20.22-.01,45-12.68,55.46-28.34Z"/><line class="cls-2" x1="109.64" y1="119.6" x2="78.41" y2="53.03"/><line class="cls-2" x1="89.76" y1="129.76" x2="58.52" y2="63.19"/></g><g><path class="cls-2" d="m68.72,133.63l-31.23-66.57c-20.19-.02-28.08-12.68-17.67-28.34l31.23,66.57c-10.42,15.66-2.52,28.33,17.67,28.34Z"/><line class="cls-2" x1="52.85" y1="129.76" x2="21.62" y2="63.19"/></g></g><path class="cls-2" d="m127.54,86.56c2.34,4.99,1.41,11.55-3.37,18.73-10.46,15.66-35.24,28.33-55.46,28.34-10.93,0-18.26-3.73-21.03-9.62L16.46,57.44c2.77,5.9,10.09,9.61,21.03,9.62,20.22-.01,45-12.68,55.46-28.34,4.78-7.18,5.71-13.74,3.37-18.73,9.37,19.97,21.86,46.6,31.23,66.57Z"/></g><path class="cls-2" d="m127.54,86.56c2.34,4.99,1.41,11.55-3.37,18.73-10.46,15.66-35.24,28.33-55.46,28.34-10.93,0-18.26-3.73-21.03-9.62L16.46,57.44c2.77,5.9,10.09,9.61,21.03,9.62,20.22-.01,45-12.68,55.46-28.34,4.78-7.18,5.71-13.74,3.37-18.73,9.37,19.97,21.86,46.6,31.23,66.57Z"/></g><g class="cls-20"><g class="cls-4"><g class="cls-20"><path class="cls-2" d="m106.5,76.93L75.27,10.37c20.2.01,28.1,12.69,17.67,28.36l31.23,66.57c10.43-15.67,2.53-28.34-17.67-28.36Z"/><line class="cls-2" x1="122.38" y1="80.81" x2="91.15" y2="14.24"/></g><path class="cls-2" d="m96.31,19.99l31.23,66.57c-2.77-5.9-10.1-9.62-21.04-9.62L75.27,10.37c10.94,0,18.27,3.73,21.04,9.62Z"/></g><path class="cls-2" d="m96.31,19.99l31.23,66.57c-2.77-5.9-10.1-9.62-21.04-9.62L75.27,10.37c10.94,0,18.27,3.73,21.04,9.62Z"/></g><g class="cls-20"><g class="cls-10"><g class="cls-20"><g><path class="cls-2" d="m68.72,133.63l-31.23-66.57c-20.19-.02-28.08-12.68-17.67-28.34l31.23,66.57c-10.42,15.66-2.52,28.33,17.67,28.34Z"/><line class="cls-2" x1="46.52" y1="119.59" x2="15.28" y2="53.03"/></g><g><path class="cls-2" d="m51.05,105.29L19.82,38.72c10.46-15.67,35.24-28.34,55.45-28.36l31.23,66.57c-20.21.02-44.99,12.69-55.45,28.36Z"/><line class="cls-2" x1="65.58" y1="90.98" x2="34.35" y2="24.41"/><line class="cls-2" x1="85.47" y1="80.81" x2="54.23" y2="14.24"/></g></g><path class="cls-2" d="m47.69,124.01L16.46,57.44c-2.34-4.99-1.41-11.54,3.36-18.72,10.46-15.67,35.24-28.34,55.45-28.36l31.23,66.57c-20.21.02-44.99,12.69-55.45,28.36-4.78,7.18-5.7,13.73-3.36,18.72Z"/></g><path class="cls-2" d="m47.69,124.01L16.46,57.44c-2.34-4.99-1.41-11.54,3.36-18.72,10.46-15.67,35.24-28.34,55.45-28.36l31.23,66.57c-20.21.02-44.99,12.69-55.45,28.36-4.78,7.18-5.7,13.73-3.36,18.72Z"/></g><g class="cls-20"><g class="cls-9"><g class="cls-20"><g><path class="cls-2" d="m75.27,10.37l-16.21-1.69c10.51,0,14.64,6.62,9.21,14.78l24.68,15.27c10.43-15.67,2.53-28.34-17.67-28.36Z"/><line class="cls-2" x1="91.15" y1="14.24" x2="67.32" y2="10.7"/><line class="cls-2" x1="97.48" y1="24.41" x2="70.63" y2="16"/></g><g><path class="cls-2" d="m92.94,38.72l-24.68-15.27c-5.42,8.14-18.38,14.76-28.9,14.76l-1.89,28.85c20.22-.01,45-12.68,55.46-28.34Z"/><line class="cls-2" x1="78.41" y1="53.03" x2="60.7" y2="30.9"/><line class="cls-2" x1="58.52" y1="63.19" x2="50.33" y2="36.2"/></g><g><path class="cls-2" d="m37.48,67.07l1.89-28.85c-10.5,0-14.63-6.62-9.2-14.76l-10.35,15.27c-10.42,15.66-2.52,28.33,17.67,28.34Z"/><line class="cls-2" x1="21.62" y1="63.19" x2="31.11" y2="36.2"/><line class="cls-2" x1="15.28" y1="53.03" x2="27.81" y2="30.9"/></g></g><path class="cls-2" d="m79.47,10.57c17.05,1.67,23.14,13.62,13.47,28.16-10.46,15.66-35.24,28.33-55.46,28.34-20.19-.02-28.08-12.68-17.67-28.34l10.35-15.27c-5.42,8.14-1.3,14.76,9.2,14.76s23.47-6.62,28.9-14.76c5.04-7.56,1.85-13.8-7.02-14.67,6.07.59,12.15,1.19,18.22,1.78Z"/></g><path class="cls-2" d="m79.47,10.57c17.05,1.67,23.14,13.62,13.47,28.16-10.46,15.66-35.24,28.33-55.46,28.34-20.19-.02-28.08-12.68-17.67-28.34l10.35-15.27c-5.42,8.14-1.3,14.76,9.2,14.76s23.47-6.62,28.9-14.76c5.04-7.56,1.85-13.8-7.02-14.67,6.07.59,12.15,1.19,18.22,1.78Z"/></g><g class="cls-20"><g class="cls-7"><g class="cls-20"><path class="cls-2" d="m75.27,10.37l-16.21-1.69c10.51,0,14.64,6.62,9.21,14.78l24.68,15.27c10.43-15.67,2.53-28.34-17.67-28.36Z"/></g><path class="cls-2" d="m61.25,8.78c6.07.59,12.15,1.19,18.22,1.78-1.33-.13-2.73-.2-4.2-.2l-16.21-1.69c.76,0,1.5.04,2.19.1Z"/></g><path class="cls-2" d="m61.25,8.78c6.07.59,12.15,1.19,18.22,1.78-1.33-.13-2.73-.2-4.2-.2l-16.21-1.69c.76,0,1.5.04,2.19.1Z"/></g><g class="cls-20"><g class="cls-8"><g class="cls-20"><path class="cls-2" d="m19.82,38.72l10.35-15.27c5.43-8.15,18.39-14.78,28.89-14.78l16.21,1.69c-20.21.02-44.99,12.69-55.45,28.36Z"/><line class="cls-2" x1="34.35" y1="24.41" x2="37.74" y2="16"/><line class="cls-2" x1="54.23" y1="14.24" x2="48.11" y2="10.7"/></g><path class="cls-2" d="m19.82,38.72l10.35-15.27c5.43-8.15,18.39-14.78,28.89-14.78l16.21,1.69c-20.21.02-44.99,12.69-55.45,28.36Z"/></g><path class="cls-2" d="m19.82,38.72l10.35-15.27c5.43-8.15,18.39-14.78,28.89-14.78l16.21,1.69c-20.21.02-44.99,12.69-55.45,28.36Z"/></g><g class="cls-20"><g class="cls-11"><g class="cls-20"><path class="cls-2" d="m113.62,120.56l-24.68-15.27c.38-.55.07-1.05-.65-1.04l16.21,1.69c10.4,0,14.49,6.55,9.11,14.62Z"/><g><path class="cls-2" d="m104.51,105.94l-16.21-1.69c-.68-.01-1.66.49-2.01,1.04l-10.35,15.27c5.38-8.07,18.19-14.62,28.58-14.62Z"/><line class="cls-2" x1="93.68" y1="107.94" x2="87.55" y2="104.39"/><line class="cls-2" x1="83.42" y1="113.18" x2="86.81" y2="104.77"/></g><g><path class="cls-2" d="m75.93,120.56l10.35-15.27c-.37.53-.06,1.04.64,1.03l-1.89,28.85c-10.39,0-14.47-6.55-9.1-14.6Z"/><line class="cls-2" x1="73.6" y1="127.92" x2="86.13" y2="105.8"/><line class="cls-2" x1="76.87" y1="133.16" x2="86.36" y2="106.17"/></g></g><path class="cls-2" d="m106.68,106.04c-6.08-.59-12.15-1.19-18.23-1.78-.05,0-.1,0-.16,0-.66-.01-1.63.47-2,1.01h0c-.42.63-.85,1.25-1.27,1.88.38-.56.88-1.3,1.25-1.85-.37.53-.06,1.04.64,1.03l-1.89,28.85c-10.39,0-14.47-6.55-9.1-14.6,5.38-8.07,18.19-14.62,28.58-14.62.76,0,1.48.03,2.17.1Z"/></g><path class="cls-2" d="m106.68,106.04c-6.08-.59-12.15-1.19-18.23-1.78-.05,0-.1,0-.16,0-.66-.01-1.63.47-2,1.01h0c-.42.63-.85,1.25-1.27,1.88.38-.56.88-1.3,1.25-1.85-.37.53-.06,1.04.64,1.03l-1.89,28.85c-10.39,0-14.47-6.55-9.1-14.6,5.38-8.07,18.19-14.62,28.58-14.62.76,0,1.48.03,2.17.1Z"/></g><g class="cls-20"><g class="cls-15"><g class="cls-20"><g><path class="cls-2" d="m85.04,135.16l1.89-28.85c.7.01,1.69-.49,2.02-1.03l24.68,15.27c-5.37,8.05-18.18,14.6-28.59,14.6Z"/><line class="cls-2" x1="95.88" y1="133.16" x2="87.69" y2="106.17"/><line class="cls-2" x1="106.14" y1="127.92" x2="88.43" y2="105.79"/></g><g><path class="cls-2" d="m113.62,120.56l-24.68-15.27c.38-.55.07-1.05-.65-1.04l16.21,1.69c10.4,0,14.49,6.55,9.11,14.62Z"/><line class="cls-2" x1="115.96" y1="113.18" x2="89.11" y2="104.77"/><line class="cls-2" x1="112.69" y1="107.94" x2="88.87" y2="104.39"/></g></g><path class="cls-2" d="m88.46,104.26c6.08.59,12.15,1.19,18.23,1.78,8.78.86,11.93,7.04,6.94,14.51-5.37,8.05-18.18,14.6-28.59,14.6l1.89-28.85c.7.01,1.69-.49,2.02-1.03.35-.51.11-.97-.49-1.03Z"/></g><path class="cls-2" d="m88.46,104.26c6.08.59,12.15,1.19,18.23,1.78,8.78.86,11.93,7.04,6.94,14.51-5.37,8.05-18.18,14.6-28.59,14.6l1.89-28.85c.7.01,1.69-.49,2.02-1.03.35-.51.11-.97-.49-1.03Z"/></g><g class="cls-20"><g class="cls-19"><g class="cls-20"><path class="cls-2" d="m104.51,105.94l-16.21-1.69c-.68-.01-1.66.49-2.01,1.04l-10.35,15.27c5.38-8.07,18.19-14.62,28.58-14.62Z"/></g><path class="cls-2" d="m85.03,107.14c.42-.63.85-1.25,1.27-1.88,0,0-.01.02-.02.03,0,0-1.25,1.85-1.25,1.85Z"/></g><path class="cls-2" d="m85.03,107.14c.42-.63.85-1.25,1.27-1.88,0,0-.01.02-.02.03,0,0-1.25,1.85-1.25,1.85Z"/></g><g class="cls-20"><g class="cls-14"><g class="cls-20"><g><path class="cls-2" d="m88.94,105.29l-31.23-66.57c.38-.55.07-1.05-.65-1.04l31.23,66.57c.72-.01,1.03.49.65,1.04Z"/><line class="cls-2" x1="88.87" y1="104.39" x2="57.63" y2="37.83"/></g><g><path class="cls-2" d="m88.3,104.25l-31.23-66.57c-.68-.01-1.66.49-2.01,1.04l31.23,66.57c.35-.55,1.34-1.05,2.01-1.04Z"/><line class="cls-2" x1="87.55" y1="104.39" x2="56.32" y2="37.82"/><line class="cls-2" x1="86.81" y1="104.77" x2="55.58" y2="38.21"/></g><g><path class="cls-2" d="m86.28,105.29l-31.23-66.57c-.37.53-.06,1.04.64,1.03l31.23,66.57c-.7.01-1.01-.49-.64-1.03Z"/><line class="cls-2" x1="86.13" y1="105.8" x2="54.89" y2="39.23"/></g></g><path class="cls-2" d="m89.06,104.61c-.1-.22-.37-.37-.76-.36-.68-.01-1.66.49-2.01,1.04-.17.24-.2.48-.11.67l-31.23-66.57c-.09-.19-.06-.42.11-.67.35-.55,1.34-1.05,2.01-1.04.39,0,.66.14.76.36,9.37,19.97,21.86,46.6,31.23,66.57Z"/></g><path class="cls-2" d="m89.06,104.61c-.1-.22-.37-.37-.76-.36-.68-.01-1.66.49-2.01,1.04-.17.24-.2.48-.11.67l-31.23-66.57c-.09-.19-.06-.42.11-.67.35-.55,1.34-1.05,2.01-1.04.39,0,.66.14.76.36,9.37,19.97,21.86,46.6,31.23,66.57Z"/></g><g class="cls-20"><g class="cls-13"><g class="cls-20"><g><path class="cls-2" d="m86.92,106.31l-31.23-66.57c.7.01,1.69-.49,2.02-1.03l31.23,66.57c-.33.53-1.32,1.04-2.02,1.03Z"/><line class="cls-2" x1="87.69" y1="106.17" x2="56.45" y2="39.61"/><line class="cls-2" x1="88.43" y1="105.79" x2="57.19" y2="39.23"/></g><g><path class="cls-2" d="m88.94,105.29l-31.23-66.57c.38-.55.07-1.05-.65-1.04l31.23,66.57c.72-.01,1.03.49.65,1.04Z"/><line class="cls-2" x1="89.11" y1="104.77" x2="57.87" y2="38.21"/></g></g><path class="cls-2" d="m57.83,38.05l31.23,66.57c.09.19.06.43-.12.68-.33.53-1.32,1.04-2.02,1.03l-31.23-66.57c.7.01,1.69-.49,2.02-1.03.17-.25.2-.49.12-.68Z"/></g><path class="cls-2" d="m57.83,38.05l31.23,66.57c.09.19.06.43-.12.68-.33.53-1.32,1.04-2.02,1.03l-31.23-66.57c.7.01,1.69-.49,2.02-1.03.17-.25.2-.49.12-.68Z"/></g><g class="cls-20"><g class="cls-12"><g class="cls-20"><path class="cls-2" d="m86.28,105.29l-31.23-66.57c-.37.53-.06,1.04.64,1.03l31.23,66.57c-.7.01-1.01-.49-.64-1.03Z"/><line class="cls-2" x1="86.36" y1="106.17" x2="55.13" y2="39.61"/></g><path class="cls-2" d="m86.17,105.95l-31.23-66.57c.1.22.37.37.75.36l31.23,66.57c-.38,0-.65-.14-.75-.36Z"/></g><path class="cls-2" d="m86.17,105.95l-31.23-66.57c.1.22.37.37.75.36l31.23,66.57c-.38,0-.65-.14-.75-.36Z"/></g><g class="cls-20"><g class="cls-16"><g class="cls-20"><path class="cls-2" d="m55.69,39.75l-16.21-1.69c10.4,0,23.22-6.55,28.59-14.6l-10.35,15.27c-.33.53-1.32,1.04-2.02,1.03Z"/></g><path class="cls-2" d="m57.69,38.75s.01-.02.02-.03c.28-.41.64-.95.92-1.35-.28.42-.66.97-.94,1.38Z"/></g><path class="cls-2" d="m57.69,38.75s.01-.02.02-.03c.28-.41.64-.95.92-1.35-.28.42-.66.97-.94,1.38Z"/></g><g class="cls-20"><g class="cls-18"><g class="cls-20"><g><path class="cls-2" d="m55.69,39.75l-16.21-1.69c10.4,0,23.22-6.55,28.59-14.6l-10.35,15.27c-.33.53-1.32,1.04-2.02,1.03Z"/><line class="cls-2" x1="56.45" y1="39.61" x2="50.32" y2="36.06"/><line class="cls-2" x1="57.19" y1="39.23" x2="60.58" y2="30.82"/></g><g><path class="cls-2" d="m57.71,38.72l10.35-15.27c5.38-8.07,1.29-14.62-9.11-14.62l-1.89,28.85c.72-.01,1.03.49.65,1.04Z"/><line class="cls-2" x1="57.87" y1="38.21" x2="70.4" y2="16.08"/><line class="cls-2" x1="57.63" y1="37.83" x2="67.13" y2="10.84"/></g><g><path class="cls-2" d="m57.06,37.69l1.89-28.85c-10.39,0-23.2,6.55-28.58,14.62l24.68,15.27c.35-.55,1.34-1.05,2.01-1.04Z"/><line class="cls-2" x1="56.32" y1="37.82" x2="48.12" y2="10.84"/><line class="cls-2" x1="55.58" y1="38.21" x2="37.86" y2="16.08"/></g><g><path class="cls-2" d="m55.05,38.72l-24.68-15.27c-5.37,8.05-1.28,14.6,9.1,14.6l16.21,1.69c-.7.01-1.01-.49-.64-1.03Z"/><line class="cls-2" x1="54.89" y1="39.23" x2="28.04" y2="30.82"/><line class="cls-2" x1="55.13" y1="39.61" x2="31.31" y2="36.06"/></g></g><path class="cls-2" d="m58.63,37.37l-.92,1.35c.38-.55.07-1.05-.65-1.04-.68-.01-1.66.49-2.01,1.04-.35.49-.1.96.48,1.02-6.07-.59-12.15-1.19-18.22-1.78-8.77-.86-11.92-7.03-6.94-14.5,5.38-8.07,18.19-14.62,28.58-14.62,10.4,0,14.49,6.55,9.11,14.62-5.37,8.05-18.18,14.6-28.59,14.6l16.21,1.69c.69.01,1.65-.47,2-.99.28-.42.66-.97.94-1.38Z"/></g><path class="cls-2" d="m58.63,37.37l-.92,1.35c.38-.55.07-1.05-.65-1.04-.68-.01-1.66.49-2.01,1.04-.35.49-.1.96.48,1.02-6.07-.59-12.15-1.19-18.22-1.78-8.77-.86-11.92-7.03-6.94-14.5,5.38-8.07,18.19-14.62,28.58-14.62,10.4,0,14.49,6.55,9.11,14.62-5.37,8.05-18.18,14.6-28.59,14.6l16.21,1.69c.69.01,1.65-.47,2-.99.28-.42.66-.97.94-1.38Z"/></g><g class="cls-20"><g class="cls-17"><g class="cls-20"><path class="cls-2" d="m55.05,38.72l-24.68-15.27c-5.37,8.05-1.28,14.6,9.1,14.6l16.21,1.69c-.7.01-1.01-.49-.64-1.03Z"/></g><path class="cls-2" d="m55.53,39.74c-6.07-.59-12.15-1.19-18.22-1.78.69.07,1.41.1,2.16.1l16.21,1.69c-.05,0-.11,0-.15,0Z"/></g><path class="cls-2" d="m55.53,39.74c-6.07-.59-12.15-1.19-18.22-1.78.69.07,1.41.1,2.16.1l16.21,1.69c-.05,0-.11,0-.15,0Z"/></g></g></svg>