<?xml version="1.0" encoding="UTF-8"?><svg id="Layer_1" xmlns="http://www.w3.org/2000/svg" viewBox="0 0 144 144"><defs><style>.cls-1{fill:#0f206c;}</style></defs><g id="Shape"><path class="cls-1" d="m91,123.04l-13.49-3.53-15.38-6.62-15.57-9.02-14.03-10.43-10.95-10.67-6.76-9.76-6.24-11.13-2.31-9.39,2.6-14.01,3.79-6.32,10.52-9.28,8.64-2.02,12.54-.41,10.55,1.43,13.06,4.29,14.36,6.69,14.41,8.48,13.24,9.54,10.92,9.8,7.61,9.2,9.23,20.2-1.26,6.89-3.5,13.92s-.02.05-.05.07l-11.11,8.75-7.18,3.8-23.64-.48Zm.05-.26l23.49.49,7.13-3.78,11.06-8.71,3.49-13.87,1.25-6.84-9.17-20.03-7.58-9.17-10.9-9.77-13.22-9.53-14.39-8.47-14.33-6.68-13.02-4.28-10.5-1.42-12.51.4-8.58,2.01-10.43,9.22-3.74,6.26-2.57,13.86,2.3,9.35,6.21,11.07,6.74,9.73,10.93,10.64,14,10.41,15.55,9,15.35,6.6,13.45,3.52Z"/><path class="cls-1" d="m54.75,29.17l-10.42-8.43-6.89,1.65c-.07.02-.14-.03-.16-.1-.02-.07.03-.14.1-.16l6.95-1.66s.08,0,.11.03l10.47,8.48c.06.05.07.13.02.18-.05.06-.13.07-.18.02Z"/><path class="cls-1" d="m62.51,30.18l-7.69-.98c-.07,0-.12-.07-.11-.15,0-.07.08-.12.15-.11l7.68.98c.07,0,.12.07.11.15,0,.07-.07.11-.13.11Z"/><path class="cls-1" d="m62.41,30.14l-7.62-8.02c-.05-.05-.05-.14,0-.19.05-.05.14-.05.19,0l7.62,8.02c.05.05.05.14,0,.19-.05.05-.14.05-.19,0Z"/><path class="cls-1" d="m59.11,43.32c-.06,0-.11-.04-.13-.09l-4.24-14-4.86,1.27c-.07.02-.14-.02-.16-.09-.02-.07.02-.14.09-.16l4.98-1.31c.07-.02.14.02.16.09l4.28,14.12c.03.08-.04.17-.13.17Z"/><path class="cls-1" d="m64.51,43.92l-5.41-.6c-.07,0-.12-.07-.12-.15,0-.07.07-.12.15-.12l5.4.6c.07,0,.12.07.12.15,0,.07-.06.12-.13.12Z"/><path class="cls-1" d="m64.51,43.92c-.06,0-.12-.05-.13-.11l-2-13.74c-.01-.1.08-.17.17-.14l9.59,3.11c.07.02.11.1.08.17s-.1.11-.17.08l-9.39-3.05,1.97,13.54c.01.08-.05.15-.13.15Z"/><path class="cls-1" d="m57.73,48.77c-.09,0-.15-.08-.13-.16l1.32-5.22-3.25.96c-.07.02-.14-.02-.16-.09-.02-.07.02-.14.09-.16l3.47-1.02c.1-.03.19.06.16.16l-1.38,5.45c-.01.06-.07.1-.13.1Z"/><path class="cls-1" d="m19.78,28.88c-.06-.04-.08-.12-.05-.18l3.35-5.75s.06-.06.11-.07l14.21-.76c.1,0,.17.1.12.19l-2.54,4.72c-.03.06-.11.09-.18.05-.06-.03-.09-.11-.05-.18l2.43-4.52-13.9.74-3.31,5.69c-.04.06-.12.08-.18.05Z"/><path class="cls-1" d="m49.78,30.49l-12.44-8.12c-.06-.04-.08-.12-.04-.18.04-.06.12-.08.18-.04l12.44,8.12c.06.04.08.12.04.18-.04.06-.12.08-.18.04Z"/><path class="cls-1" d="m55.64,44.35c-.05,0-.1-.03-.12-.08l-5.68-13.57-1.59,3.27c-.03.07-.11.09-.18.06-.07-.03-.09-.11-.06-.18l1.72-3.54s.08-.07.12-.07c.05,0,.1.03.12.08l5.8,13.84c.04.09-.03.18-.12.18Z"/><path class="cls-1" d="m55.2,46.41c-.08,0-.15-.08-.13-.16l.18-.85-.24.53c-.03.07-.11.1-.17.07-.07-.03-.1-.11-.07-.17l.75-1.67c.03-.06.1-.09.16-.07.06.02.1.09.09.15l-.45,2.07c-.01.06-.07.1-.13.1Z"/><path class="cls-1" d="m11.51,48.55c-.06,0-.11-.04-.13-.1l-2.54-9.86s0-.1.04-.13l10.88-9.8c.05-.05.14-.04.19,0,.05.05.04.14,0,.19l-10.82,9.74,2.52,9.78c.02.08-.04.16-.13.16Z"/><path class="cls-1" d="m22.42,38c-.06,0-.11-.04-.13-.1l-2.57-9.1c-.02-.08.03-.16.11-.17l15.01-1.79c.07,0,.12.03.14.09l2.32,7.44c.02.07-.02.14-.09.16-.07.02-.14-.02-.16-.09l-2.28-7.33-14.75,1.76,2.53,8.95c.02.08-.04.17-.13.17Z"/><path class="cls-1" d="m48.13,34.04l-13.32-6.95c-.06-.03-.09-.11-.05-.18.03-.06.11-.09.18-.05l13.26,6.93c.12.06.08.25-.06.25Z"/><path class="cls-1" d="m52.33,42.74l-3.49-7.06,1.22,3.67c.02.07-.01.14-.08.17-.07.02-.14-.01-.17-.08l-1.82-5.48c-.02-.07.01-.14.07-.16.06-.03.14,0,.17.06l4.33,8.77c.03.07,0,.14-.06.18-.07.03-.14,0-.18-.06Z"/><path class="cls-1" d="m11.42,48.51c-.05-.05-.05-.14,0-.19l10.91-10.56c.05-.05.14-.05.19,0,.05.05.05.14,0,.19l-10.91,10.56c-.05.05-.14.05-.19,0Z"/><path class="cls-1" d="m30.82,49.58l-8.51-11.64c-.06-.08-.02-.18.08-.21l14.76-3.45c.07-.02.14.03.16.1.02.07-.03.14-.1.16l-14.57,3.41,8.39,11.48c.04.06.03.14-.03.18-.06.04-.14.03-.18-.03Z"/><path class="cls-1" d="m113.84,76.96l-7.46-.56-9.87-2.96-11.25-5.09-11.45-6.7-10.41-7.59-8.27-7.66-5.27-6.9-12.3-4.79,6.85,9.11c.04.06.03.14-.03.18-.06.04-.14.03-.18-.03l-7.13-9.48c-.08-.1.03-.25.15-.2l12.76,4.98s.04.02.06.04l5.27,6.91,8.24,7.64,10.39,7.57,11.42,6.68,11.22,5.08,9.81,2.94,7.44.56c.07,0,.13.07.12.14,0,.07-.06.12-.13.12Z"/><path class="cls-1" d="m16.82,73.77l-8.22-11.83s-.03-.07-.02-.1l2.8-13.44c.02-.11.17-.14.24-.05l8.9,12.55c.04.06.03.14-.03.18-.06.04-.14.03-.18-.03l-8.72-12.3-2.73,13.09,8.19,11.79c.04.06.03.14-.03.18-.06.04-.14.03-.18-.03Z"/><path class="cls-1" d="m20.32,61.07c-.05-.05-.06-.13,0-.19l10.52-11.47c.05-.05.13-.06.19,0,.05.05.06.13,0,.19l-10.52,11.47c-.05.05-.13.06-.19,0Z"/><path class="cls-1" d="m44.58,62.58l-13.74-12.98c-.07-.07-.05-.18.04-.22l13.38-5.61s.1-.01.14.03l11.33,10.56c.05.05.06.13,0,.19-.05.05-.13.06-.19,0l-11.27-10.5-13.12,5.5,13.59,12.84c.05.05.05.13,0,.19-.05.05-.13.05-.19,0Z"/><path class="cls-1" d="m55.22,46.44l-10.94-2.41c-.07-.02-.12-.09-.1-.16.02-.07.08-.12.16-.1l10.91,2.41c.07.02.12.09.1.16-.01.06-.07.1-.13.1Z"/><path class="cls-1" d="m21.55,82.75l-4.74-8.99c-.03-.06,0-.14.05-.18.06-.03.14,0,.18.05l4.74,8.99c.03.06,0,.14-.05.18-.06.03-.14,0-.18-.05Z"/><path class="cls-1" d="m30.28,86.85l-13.45-13.06s-.05-.08-.04-.13l3.48-12.72c.03-.09.14-.13.22-.06l14.54,13.95c.05.05.05.13,0,.19-.05.05-.13.05-.19,0l-14.38-13.8-3.4,12.43,13.39,13c.05.05.05.13,0,.19-.05.05-.13.05-.19,0Z"/><path class="cls-1" d="m34.86,75.03c-.06-.04-.07-.13-.02-.18l9.72-12.44c.04-.06.13-.07.18-.02.06.04.07.13.02.18l-9.72,12.44c-.05.06-.13.07-.18.02Z"/><path class="cls-1" d="m62.22,75.51l-17.63-12.91c-.07-.05-.07-.16,0-.21l10.97-8.03c.06-.04.14-.03.18.03.04.06.03.14-.03.18l-10.83,7.92,17.41,12.78c.1.07.05.24-.08.24Z"/><path class="cls-1" d="m69.92,65.06l-14.36-10.49c-.1-.07-.05-.23.07-.24l7.84-.5c.08,0,.14.05.14.12,0,.07-.05.13-.12.14l-7.47.48,14.07,10.28c.06.04.07.13.03.18-.04.06-.13.07-.18.03Z"/><path class="cls-1" d="m32.61,93.48c-.05,0-.11-.03-.12-.09l-2.24-6.59c-.02-.07.01-.14.08-.17.07-.02.14.01.17.08l2.24,6.59c.03.08-.03.17-.12.17Z"/><path class="cls-1" d="m47.66,99.71l-17.37-12.86s-.07-.1-.04-.15l4.57-11.83c.03-.08.13-.11.2-.06l18.67,13.79c.06.04.07.13.03.18-.04.06-.13.07-.18.03l-18.53-13.69-4.48,11.57,17.21,12.77c.1.08.05.24-.08.24Z"/><path class="cls-1" d="m53.55,88.83c-.06-.04-.08-.12-.04-.18l8.6-13.34c.04-.06.12-.08.18-.04.06.04.08.12.04.18l-8.6,13.34c-.04.06-.12.08-.18.04Z"/><path class="cls-1" d="m81.61,86.81l-19.46-11.32c-.07-.04-.09-.13-.04-.19l7.78-10.42c.04-.06.13-.07.18-.03.06.04.07.13.03.18l-7.69,10.31,19.26,11.23c.12.07.07.25-.07.25Z"/><path class="cls-1" d="m85.82,74.33l-15.89-9.27c-.08-.05-.09-.15-.02-.21l3.87-3.41c.05-.05.14-.04.19.01.05.05.04.14-.01.19l-3.74,3.29,15.66,9.16c.12.07.07.24-.07.24Z"/><path class="cls-1" d="m46.63,103.89c-.09,0-.15-.08-.13-.16l1.03-4.18c.02-.07.09-.11.16-.1.07.02.11.09.1.16l-1.03,4.18c-.01.06-.07.1-.13.1Z"/><path class="cls-1" d="m66.85,110.84l-19.26-11.14c-.06-.04-.08-.11-.05-.18l5.96-10.87c.03-.06.12-.09.18-.05l20.69,12.02c.06.04.08.12.05.18-.04.06-.12.08-.18.05l-20.57-11.96-5.83,10.63,19.08,11.06c.12.07.07.25-.07.25Z"/><path class="cls-1" d="m74.3,100.87c-.1,0-.16-.1-.12-.19l7.31-14.06c.03-.06.11-.09.18-.06.06.03.09.11.06.18l-7.31,14.06s-.07.07-.12.07Z"/><path class="cls-1" d="m100.61,95.25l-19.05-8.45c-.06-.03-.09-.1-.07-.16l4.21-12.48c.02-.07.1-.11.17-.08.07.02.11.1.08.17l-4.17,12.37,18.89,8.39c.07.03.1.11.07.17-.02.05-.07.08-.12.08Z"/><path class="cls-1" d="m101.33,81.31l-15.56-6.99s-.07-.06-.08-.11l-.51-5.97c0-.07.05-.14.12-.14.07,0,.14.05.14.12l.51,5.89,15.44,6.95c.13.06.09.25-.05.25Z"/><path class="cls-1" d="m62.06,112.83c-.03-.07,0-.14.07-.17l4.67-2.07c.07-.03.14,0,.17.07.03.07,0,.14-.07.17l-4.67,2.07c-.06.03-.14,0-.17-.07Z"/><path class="cls-1" d="m85.74,119l-18.94-8.17c-.08-.03-.1-.13-.05-.2l7.45-9.97s.1-.07.16-.04l20.3,8.88c.07.03.1.11.07.17-.03.07-.11.1-.17.07l-20.2-8.84-7.29,9.75,18.73,8.09c.07.03.1.11.07.17-.02.05-.07.08-.12.08Z"/><path class="cls-1" d="m94.55,109.74c-.07-.03-.1-.1-.07-.17l6.01-14.5c.03-.07.11-.1.17-.07.07.03.1.1.07.17l-6.01,14.5c-.03.07-.1.1-.17.07Z"/><path class="cls-1" d="m117.09,99.94l-16.52-4.7c-.06-.02-.1-.07-.1-.13l.72-13.94c0-.08.09-.14.17-.12l13.5,3.99c.07.02.11.09.09.16-.02.07-.09.11-.16.09l-13.34-3.94-.7,13.67,16.38,4.66c.07.02.11.09.09.16-.02.06-.07.1-.13.1Z"/><path class="cls-1" d="m101.21,81.25l-4.79-7.86c-.04-.06-.02-.14.04-.18.06-.04.14-.02.18.04l4.79,7.86c.04.06.02.14-.04.18-.06.04-.14.02-.18-.04Z"/><path class="cls-1" d="m77.55,119.52c-.07,0-.13-.05-.13-.12,0-.07.05-.13.12-.14l8.19-.52c.08,0,.13.05.14.12s-.05.13-.12.14l-8.2.52Z"/><path class="cls-1" d="m102.21,123.34l-16.51-4.35c-.1-.03-.13-.15-.06-.22l8.86-9.25s.08-.05.13-.04l17.63,4.8c.1.03.13.16.05.23l-10.01,8.79s-.06.03-.09.03Zm-16.23-4.55l16.19,4.27,9.78-8.59-17.31-4.72-8.66,9.03Z"/><path class="cls-1" d="m125.36,114.91l-13.14-.36c-.09,0-.15-.09-.12-.17l4.87-14.61c.02-.07.1-.11.17-.08.07.02.11.1.08.17l-4.81,14.44,12.96.35c.07,0,.13.06.13.14,0,.07-.06.13-.13.13Z"/><path class="cls-1" d="m129.36,100.51l-12.28-.57c-.06,0-.11-.05-.12-.11l-2.26-14.65c-.01-.07.04-.14.11-.15.07-.01.14.04.15.11l2.25,14.54,12.17.56c.07,0,.13.06.13.14,0,.07-.06.13-.13.13Z"/><path class="cls-1" d="m124.94,85.95l-10.12-.66s-.06-.02-.09-.04l-8.44-8.9c-.05-.05-.05-.14,0-.19.05-.05.14-.05.19,0l8.41,8.86,10.06.65c.07,0,.13.07.12.14,0,.07-.06.12-.13.12Z"/><path class="cls-1" d="m125.36,114.91c-.09,0-.15-.08-.13-.17l4.01-14.4c.02-.07.09-.11.16-.09.07.02.11.09.09.16l-4.01,14.4c-.02.06-.07.1-.13.1Z"/><path class="cls-1" d="m129.24,100.42l-4.42-14.56c-.02-.07.02-.14.09-.16.07-.02.14.02.16.09l4.38,14.41,6.73-3.31-5.54-13.63c-.03-.07,0-.14.07-.17.07-.03.14,0,.17.07l5.58,13.74c.03.06,0,.14-.06.17l-6.98,3.43c-.07.04-.16,0-.18-.08Z"/><path class="cls-1" d="m124.86,85.92l-11.11-8.99c-.08-.06-.06-.19.03-.22l4.38-1.82c.07-.03.14,0,.17.07.03.07,0,.14-.07.17l-4.17,1.73,10.87,8.8,5.74-2.58c.07-.03.14,0,.17.07.03.07,0,.14-.07.17l-5.82,2.62s-.1.01-.14-.02Z"/><path class="cls-1" d="m114.47,123.49c-.05-.06-.04-.14.02-.18l10.78-8.63,7.51-3.93c.06-.03.14,0,.18.06.03.06,0,.14-.06.18l-7.49,3.91-10.76,8.62c-.06.05-.14.04-.18-.02Z"/><path class="cls-1" d="m130.69,83.32l-12.55-8.19c-.06-.04-.08-.12-.04-.18.04-.06.12-.08.18-.04l12.39,8.09,1.09-5.31c.01-.07.08-.12.16-.1.07.01.12.08.1.16l-1.12,5.5c-.02.09-.12.13-.2.08Z"/><path class="cls-1" d="m103.99,75.68c-.07,0-.13-.06-.13-.13,0-.07.05-.13.13-.14l14.13-.53.94-3.85c.02-.07.09-.11.16-.1.07.02.11.09.1.16l-.96,3.95c-.01.06-.06.1-.12.1l-14.23.54Z"/><path class="cls-1" d="m137.48,90.12l-9.18-20.04-11.62-4.53c-.07-.03-.1-.1-.07-.17.03-.07.1-.1.17-.07l11.67,4.55s.06.04.07.07l9.2,20.09c.03.07,0,.14-.06.17-.07.03-.14,0-.17-.06Z"/><path class="cls-1" d="m131.88,77.84l-12.77-6.66c-.06-.03-.09-.11-.06-.18.03-.06.11-.09.18-.06l12.71,6.65c.12.06.08.25-.06.25Z"/><path class="cls-1" d="m104.4,72.91c-.07,0-.12-.05-.13-.12,0-.07.04-.14.12-.15l14.6-1.7-2.37-5.48c-.03-.07,0-.14.07-.17.07-.03.14,0,.17.07l2.44,5.64c.03.08-.02.17-.11.18l-14.79,1.72Z"/><path class="cls-1" d="m103.65,75.58c-.09,0-.15-.08-.13-.17l.75-2.67c.02-.07.09-.11.16-.09.07.02.11.09.09.16l-.75,2.67c-.02.06-.07.1-.13.1Z"/><path class="cls-1" d="m101.78,75c-.05-.06-.04-.14.01-.19l2.44-2.08-1.59-3.9c-.03-.07,0-.14.07-.17.07-.03.14,0,.17.07l1.62,3.99c.02.05,0,.11-.04.15l-2.51,2.14c-.06.05-.14.04-.19-.02Z"/><path class="cls-1" d="m102.78,68.92c-.06,0-.11-.04-.13-.1-.02-.07.03-.14.1-.16l13.75-3.31-5.39-6.59c-.05-.06-.04-.14.02-.19.06-.05.14-.04.18.02l5.52,6.76c.06.07.02.19-.07.21l-13.98,3.37Z"/><path class="cls-1" d="m97.49,73.72c-.05-.05-.05-.14,0-.19l5.1-4.76-3.75-4.7c-.05-.06-.04-.14.02-.18.06-.05.14-.04.18.02l3.83,4.8c.04.05.04.13-.01.18l-5.19,4.84c-.05.05-.14.05-.19,0Z"/><path class="cls-1" d="m120.81,60.92l-9.63-2.12c-.07-.02-.12-.09-.1-.16.02-.07.09-.12.16-.1l9.6,2.12c.07.02.12.09.1.16-.01.06-.07.1-.13.1Z"/><path class="cls-1" d="m98.95,64.12c-.05,0-.1-.03-.12-.08-.03-.07,0-.14.07-.17l12.07-5.24-7.88-7.1c-.05-.05-.06-.13,0-.19.05-.05.13-.06.19,0l8.03,7.24c.07.06.05.18-.04.22l-12.31,5.33Z"/><path class="cls-1" d="m92.01,71.4c-.05-.05-.06-.13,0-.19l6.76-7.22-5.55-5.06c-.05-.05-.06-.13,0-.19.05-.05.13-.06.19,0l5.65,5.15c.05.05.06.13,0,.19l-6.85,7.31c-.05.05-.13.06-.19,0Z"/><path class="cls-1" d="m103.17,51.56c-.07,0-.13-.05-.13-.12,0-.07.05-.13.12-.14l6.72-.43c.19,0,.18.25.02.26l-6.73.43Z"/><path class="cls-1" d="m93.2,58.92c-.04-.06-.03-.14.03-.18l9.73-7.31-9.65-6.96c-.06-.04-.07-.12-.03-.18.04-.06.12-.07.18-.03l9.79,7.07c.07.05.07.16,0,.21l-9.87,7.41c-.06.04-.14.03-.18-.03Z"/><path class="cls-1" d="m85.66,68.53c-.06-.05-.07-.13-.02-.18l7.48-9.48-6.82-4.94c-.06-.04-.07-.12-.03-.18.04-.06.12-.07.18-.03l6.93,5.02c.06.04.07.13.03.19l-7.57,9.59c-.05.06-.13.07-.18.02Z"/><path class="cls-1" d="m93.29,44.45c-.05-.05-.04-.14.01-.19l3.29-2.89c.05-.05.14-.04.19.01.05.05.04.14-.01.19l-3.29,2.89c-.05.05-.14.04-.19-.01Z"/><path class="cls-1" d="m86.38,53.95c-.11,0-.17-.12-.11-.21l6.92-9.34-10.55-6.2c-.06-.04-.08-.12-.05-.18.04-.06.12-.08.18-.05l10.67,6.28c.07.04.09.13.04.19l-7.01,9.46s-.07.05-.11.05Z"/><path class="cls-1" d="m79.25,64.84c-.06-.04-.08-.12-.04-.18l6.98-10.8-7.45-4.37c-.06-.04-.08-.12-.05-.18.04-.06.12-.08.18-.05l7.57,4.44c.06.04.08.12.04.18l-7.05,10.91c-.04.06-.12.08-.18.04Z"/><path class="cls-1" d="m82.71,38.21c-.07,0-.12-.05-.13-.12l-.44-5.09c0-.07.05-.14.12-.14.07,0,.14.05.14.12l.44,5.09c0,.08-.05.14-.13.14Z"/><path class="cls-1" d="m78.81,49.51c-.09,0-.15-.09-.12-.17l3.86-11.18-10.5-4.87c-.07-.03-.09-.11-.06-.17.03-.07.11-.09.17-.06l10.61,4.92c.06.03.09.1.07.16l-3.9,11.29c-.02.05-.07.09-.12.09Z"/><path class="cls-1" d="m72.83,60.94c-.06-.03-.09-.11-.06-.18l5.85-11.33-7.4-3.39c-.07-.03-.1-.11-.06-.17.03-.07.11-.09.17-.06l7.52,3.45c.07.03.1.11.06.18l-5.92,11.45c-.03.06-.11.09-.18.06Z"/><path class="cls-1" d="m71.29,46.06c-.08,0-.14-.06-.13-.14l.81-12.73-4.15-6.82c-.04-.06-.02-.14.04-.18.06-.04.14-.02.18.04l4.17,6.85s.02.05.02.08l-.82,12.77c0,.07-.06.12-.13.12Z"/><path class="cls-1" d="m66.99,56.65c-.09,0-.16-.09-.12-.18l4.25-10.46-6.52-2.05-2.69,8.47c-.02.07-.09.11-.17.09-.07-.02-.11-.1-.09-.17l2.73-8.6c.02-.07.1-.11.16-.09l6.78,2.13c.07.02.11.1.08.17l-4.3,10.59c-.02.05-.07.08-.12.08Z"/></g></svg>